<svg width="37" height="37" viewBox="0 0 37 37" fill="none" xmlns="http://www.w3.org/2000/svg">
<path d="M1.22706 3.00265C1.50495 3.28055 1.86865 3.41831 2.23314 3.41831C2.59684 3.41831 2.96133 3.27897 3.23923 3.00265C3.79501 2.44687 3.79501 1.5447 3.23923 0.988909L2.90386 0.655122C2.34808 0.0993345 1.44748 0.0993345 0.891694 0.655122C0.335907 1.21091 0.335907 2.11229 0.891694 2.66808L1.22706 3.00265Z" fill="white"/>
<path d="M2.85425 4.04242C2.85425 4.42187 3.00618 4.78242 3.27148 5.04693L5.83314 7.60938L6.34484 8.12108C6.61014 8.38717 6.9707 8.53753 7.35093 8.53753C7.73038 8.53753 8.09014 8.38717 8.35623 8.12108C8.62153 7.85578 8.77346 7.49444 8.77346 7.11578C8.77346 6.73712 8.62153 6.37657 8.35623 6.11048L7.84374 5.59878L5.28287 3.03633C4.75148 2.50416 3.81231 2.50416 3.27148 3.03633C3.00618 3.30163 2.85425 3.66219 2.85425 4.04242Z" fill="white"/>
<path d="M33.3252 28.2939C32.0223 27.6271 30.4006 26.799 28.4617 25.2765C28.0822 24.9789 27.6248 24.8561 27.1777 24.8829C27.3509 24.1948 27.2596 23.4603 26.9116 22.8274C26.9777 22.6188 27.0297 22.4125 27.0533 22.2055C27.1423 21.4017 26.8927 20.6176 26.3826 20.1091L16.6563 10.382C16.4784 10.2033 15.5164 9.31766 14.0246 9.31766C13.5176 9.31766 12.8366 9.4326 12.099 9.84353L10.4072 8.15806C9.8664 7.61723 8.92723 7.61723 8.39585 8.15806C8.12111 8.42415 7.97862 8.7847 7.97862 9.16415C7.97862 9.54202 8.12111 9.8947 8.39585 10.1687L10.0797 11.8541C9.43972 12.9925 9.51294 14.0269 9.6507 14.6228C9.88057 15.6203 10.4505 16.2493 10.619 16.4177L20.3453 26.144C20.5531 26.351 21.1388 26.832 22.115 26.832C22.4314 26.832 22.7503 26.7769 23.0699 26.6754C23.4934 26.9076 23.9587 27.0351 24.4294 27.0351C24.7601 27.0351 25.0891 26.9706 25.404 26.8549C25.4284 27.387 25.6686 27.9058 26.1189 28.2593C28.3467 30.0077 30.2259 30.9674 31.5988 31.6712C32.205 31.9806 32.9442 32.3592 33.204 32.5836C33.1937 32.8355 33.1441 32.9449 33.1197 32.9646H1.89723C0.849426 32.9646 0 33.814 0 34.8618C0 35.9096 0.849426 36.7591 1.89723 36.7591H33.2055C34.7312 36.7591 37 35.6231 37 32.4899C37 30.1723 35.1319 29.2174 33.3252 28.2939Z" fill="white"/>
</svg>
