<svg width="26" height="17" viewBox="0 0 26 17" fill="none" xmlns="http://www.w3.org/2000/svg">
<path d="M24.0944 3.58301H23.8333V3.31217C23.8333 1.66876 22.4965 0.333008 20.8542 0.333008H2.97917C1.33683 0.333008 0 1.66876 0 3.31217V13.6038C0 15.2473 1.33683 16.583 2.97917 16.583H20.8542C22.4965 16.583 23.8333 15.2473 23.8333 13.6038V13.333H24.0944C25.1398 13.333 25.9902 12.4826 25.9902 11.4372V5.47884C25.9902 4.43342 25.1398 3.58301 24.0944 3.58301ZM15.0768 7.66718L11.2894 13.6244C11.1887 13.7837 11.0143 13.8747 10.8333 13.8747C10.7716 13.8747 10.7098 13.8638 10.6503 13.8433C10.4119 13.7566 10.2646 13.5172 10.296 13.2658L10.7618 9.54134L9.204 9.53918C9.00033 9.53918 8.81508 9.42543 8.723 9.24559C8.63092 9.06468 8.64608 8.84801 8.76417 8.68226L12.6382 3.26667C12.7844 3.06301 13.0542 2.98717 13.286 3.08142C13.5189 3.17784 13.6543 3.42159 13.6143 3.66967L13.0953 6.83301L14.6207 6.83517C14.8189 6.83517 14.9998 6.94351 15.0952 7.11684C15.1894 7.28909 15.1829 7.50034 15.0768 7.66718Z" fill="white"/>
</svg>
