<svg width="26" height="26" viewBox="0 0 26 26" fill="none" xmlns="http://www.w3.org/2000/svg">
<path d="M23.8155 11.789C23.2174 11.789 22.7322 11.3038 22.7322 10.7058C22.7322 7.66703 21.5492 4.81137 19.4009 2.6619C18.9774 2.23839 18.9774 1.55384 19.4009 1.13013C19.8244 0.706623 20.5091 0.706623 20.9327 1.13013C23.4906 3.68784 24.8987 7.0886 24.8987 10.7058C24.8987 11.3038 24.4135 11.789 23.8155 11.789Z" fill="white"/>
<path d="M2.14967 11.789C1.5518 11.789 1.06641 11.3038 1.06641 10.7058C1.06641 7.0886 2.47479 3.68784 5.0325 1.13013C5.45601 0.706623 6.14076 0.706623 6.56427 1.13013C6.98798 1.55384 6.98798 2.23839 6.56427 2.6619C4.41599 4.81018 3.23314 7.66703 3.23314 10.7058C3.23314 11.3038 2.74774 11.789 2.14967 11.789Z" fill="white"/>
<path d="M23.1437 18.3225C21.5056 16.9379 20.5664 14.9142 20.5664 12.7703V9.75C20.5664 5.93784 17.7345 2.78206 14.0664 2.25342V1.08327C14.0664 0.484207 13.581 0 12.9831 0C12.3851 0 11.8997 0.484207 11.8997 1.08327V2.25342C8.23051 2.78206 5.39966 5.93784 5.39966 9.75V12.7703C5.39966 14.9142 4.4604 16.9379 2.81279 18.331C2.39127 18.6919 2.14966 19.2161 2.14966 19.7708C2.14966 20.8163 3.00005 21.6667 4.04562 21.6667H21.9206C22.966 21.6667 23.8164 20.8163 23.8164 19.7708C23.8164 19.2161 23.5748 18.6919 23.1437 18.3225Z" fill="white"/>
<path d="M12.9831 26C14.9449 26 16.5862 24.6013 16.9633 22.75H9.00293C9.37982 24.6013 11.0211 26 12.9831 26Z" fill="white"/>
</svg>
