<svg width="44" height="39" viewBox="0 0 44 39" fill="none" xmlns="http://www.w3.org/2000/svg">
<path d="M2.21045 39C1.45145 39 0.835449 38.384 0.835449 37.625V11.0417C0.835449 5.23 5.56545 0.5 11.3771 0.5H41.6271C42.3861 0.5 43.0021 1.116 43.0021 1.875C43.0021 2.634 42.3861 3.25 41.6271 3.25H11.3771C7.08162 3.25 3.58545 6.74617 3.58545 11.0417V37.625C3.58545 38.384 2.96945 39 2.21045 39Z" fill="white"/>
<path d="M27.8729 20.6668H14.1229C10.8376 20.6668 8.16455 17.9938 8.16455 14.7085V13.7918C8.16455 10.5065 10.8376 7.8335 14.1229 7.8335H27.8729C31.1582 7.8335 33.8312 10.5065 33.8312 13.7918V14.7085C33.8312 17.9938 31.1582 20.6668 27.8729 20.6668ZM14.1229 10.5835C12.3537 10.5835 10.9146 12.0227 10.9146 13.7918V14.7085C10.9146 16.4777 12.3537 17.9168 14.1229 17.9168H27.8729C29.6421 17.9168 31.0812 16.4777 31.0812 14.7085V13.7918C31.0812 12.0227 29.6421 10.5835 27.8729 10.5835H14.1229Z" fill="white"/>
<path d="M25.5854 17C24.0693 17 22.8354 15.7662 22.8354 14.25C22.8354 12.7338 24.0693 11.5 25.5854 11.5C27.1016 11.5 28.3354 12.7338 28.3354 14.25C28.3354 15.7662 27.1016 17 25.5854 17Z" fill="white"/>
<path d="M16.4146 17C14.8984 17 13.6646 15.7662 13.6646 14.25C13.6646 12.7338 14.8984 11.5 16.4146 11.5C17.9307 11.5 19.1646 12.7338 19.1646 14.25C19.1646 15.7662 17.9307 17 16.4146 17Z" fill="white"/>
</svg>
