<svg width="28" height="21" viewBox="0 0 28 21" fill="none" xmlns="http://www.w3.org/2000/svg">
<path fill-rule="evenodd" clip-rule="evenodd" d="M14.0004 18.091C10.234 18.091 7.1822 15.0392 7.1822 11.2729C7.1822 7.5065 10.234 4.45468 14.0004 4.45468C17.7667 4.45468 20.8186 7.5065 20.8186 11.2729C20.8186 15.0392 17.7667 18.091 14.0004 18.091ZM24.2277 4.45468H22.864C21.5004 4.45468 20.5677 3.27104 20.1367 2.40922C19.4549 1.04559 18.7731 0.36377 16.7277 0.36377H14.0004H11.2731C9.22765 0.36377 8.54583 1.04559 7.86401 2.40922C7.4331 3.27104 6.50038 4.45468 5.13674 4.45468H3.7731C1.88992 4.45468 0.364014 5.98059 0.364014 7.86377V17.4092C0.364014 19.2924 1.88992 20.8183 3.7731 20.8183H24.2277C26.1108 20.8183 27.6367 19.2924 27.6367 17.4092V7.86377C27.6367 5.98059 26.1108 4.45468 24.2277 4.45468Z" fill="white"/>
<path fill-rule="evenodd" clip-rule="evenodd" d="M18.0908 11.273C18.0908 13.5312 16.258 15.3639 13.9998 15.3639C11.7417 15.3639 9.90894 13.5312 9.90894 11.273C9.90894 9.01486 11.7417 7.18213 13.9998 7.18213C16.258 7.18213 18.0908 9.01486 18.0908 11.273Z" fill="white"/>
</svg>
