<svg width="26" height="26" viewBox="0 0 26 26" fill="none" xmlns="http://www.w3.org/2000/svg">
<path d="M20.8 15.6H18.2V10.4H20.8C23.6717 10.4 26 8.0717 26 5.2C26 2.3283 23.6717 0 20.8 0C17.928 0 15.6 2.3283 15.6 5.2V7.8H10.4V5.2C10.4 2.3283 8.0717 0 5.2 0C2.3283 0 0 2.3283 0 5.2C0 8.0717 2.3283 10.4 5.2 10.4H7.8V15.6H5.2C2.3283 15.6 0 17.9283 0 20.8C0 23.6717 2.3283 26 5.2 26C8.07202 26 10.4 23.6717 10.4 20.8V18.2H15.6V20.7935C15.6 20.7961 15.5997 20.798 15.5997 20.8C15.5997 23.6717 17.928 26 20.7997 26C23.6714 26 25.9997 23.6717 25.9997 20.8C25.9997 17.9283 23.6717 15.6006 20.8 15.6ZM20.8 2.6C22.2358 2.6 23.4 3.76415 23.4 5.2C23.4 6.63585 22.2358 7.8 20.8 7.8H18.2V5.2C18.2 3.76415 19.3641 2.6 20.8 2.6ZM2.6 5.2C2.6 3.76415 3.76415 2.6 5.2 2.6C6.63585 2.6 7.8 3.76415 7.8 5.2V7.8H5.2C3.76415 7.8 2.6 6.63552 2.6 5.2ZM5.2 23.4C3.76415 23.4 2.6 22.2358 2.6 20.8C2.6 19.3641 3.76415 18.2 5.2 18.2H7.8V20.8C7.8 22.2358 6.63585 23.4 5.2 23.4ZM10.4 15.6V10.4H15.6V15.6H10.4ZM20.8 23.4C19.3641 23.4 18.2 22.2358 18.2 20.8V18.2H20.7997C22.2355 18.2 23.3997 19.3641 23.3997 20.8C23.3997 22.2358 22.2358 23.4 20.8 23.4Z" fill="white"/>
</svg>
