<svg width="32" height="32" viewBox="0 0 32 32" fill="none" xmlns="http://www.w3.org/2000/svg">
<path d="M12 5.99978C12.0004 5.29754 11.8159 4.60758 11.4651 3.99925C11.1143 3.39092 10.6095 2.88567 10.0014 2.53429C9.39344 2.18292 8.70363 1.9978 8.00139 1.99756C7.29915 1.99731 6.60922 2.18195 6.00097 2.5329C5.39271 2.88385 4.88757 3.38875 4.53632 3.99684C4.18507 4.60492 4.0001 5.29476 4 5.997C3.9999 6.69924 4.18468 7.38913 4.53576 7.99732C4.88684 8.6055 5.39184 9.11054 6 9.46166V22.5379C5.23743 22.9782 4.64145 23.6578 4.30448 24.4713C3.96752 25.2848 3.9084 26.1868 4.1363 27.0373C4.3642 27.8878 4.86638 28.6394 5.56496 29.1754C6.26353 29.7115 7.11946 30.002 8 30.002C8.88054 30.002 9.73647 29.7115 10.435 29.1754C11.1336 28.6394 11.6358 27.8878 11.8637 27.0373C12.0916 26.1868 12.0325 25.2848 11.6955 24.4713C11.3586 23.6578 10.7626 22.9782 10 22.5379V9.46166C10.6078 9.11078 11.1125 8.60617 11.4635 7.99852C11.8146 7.39087 11.9996 6.70155 12 5.99978ZM8 3.99978C8.39556 3.99978 8.78224 4.11708 9.11114 4.33685C9.44004 4.55661 9.69639 4.86897 9.84776 5.23442C9.99914 5.59987 10.0387 6.002 9.96157 6.38997C9.8844 6.77793 9.69392 7.13429 9.41421 7.414C9.13451 7.6937 8.77814 7.88419 8.39018 7.96136C8.00222 8.03853 7.60009 7.99892 7.23463 7.84754C6.86918 7.69617 6.55683 7.43982 6.33706 7.11093C6.1173 6.78203 6 6.39535 6 5.99978C6 5.46935 6.21072 4.96064 6.58579 4.58557C6.96086 4.2105 7.46957 3.99978 8 3.99978ZM8 27.9998C7.60444 27.9998 7.21776 27.8825 6.88886 27.6627C6.55996 27.443 6.30362 27.1306 6.15224 26.7652C6.00087 26.3997 5.96126 25.9976 6.03843 25.6096C6.1156 25.2216 6.30608 24.8653 6.58579 24.5856C6.86549 24.3059 7.22186 24.1154 7.60982 24.0382C7.99778 23.961 8.39992 24.0007 8.76537 24.152C9.13082 24.3034 9.44318 24.5597 9.66294 24.8886C9.8827 25.2175 10 25.6042 10 25.9998C10 26.5302 9.78929 27.0389 9.41421 27.414C9.03914 27.7891 8.53043 27.9998 8 27.9998Z" fill="white"/>
<path d="M25.9995 22.5381V9.75003C25.9979 8.22554 25.3915 6.76396 24.3136 5.68599C23.2356 4.60801 21.774 4.00168 20.2495 4.00003H18.9995V2.00003C18.9994 1.80231 18.9407 1.60906 18.8309 1.4447C18.721 1.28033 18.5648 1.15223 18.3822 1.07658C18.1995 1.00093 17.9985 0.981131 17.8046 1.01968C17.6106 1.05823 17.4325 1.15339 17.2927 1.29315L13.2927 5.29315C13.1053 5.48067 13 5.73492 13 6.00003C13 6.26513 13.1053 6.51938 13.2927 6.7069L17.2927 10.7069C17.4325 10.8467 17.6106 10.9418 17.8046 10.9804C17.9985 11.0189 18.1995 10.9991 18.3822 10.9235C18.5648 10.8478 18.721 10.7197 18.8309 10.5554C18.9407 10.391 18.9994 10.1977 18.9995 10V8.00003H20.2495C20.7137 8.00003 21.1588 8.1844 21.487 8.51259C21.8152 8.84078 21.9995 9.2859 21.9995 9.75003V22.5381C21.237 22.9784 20.641 23.658 20.304 24.4715C19.967 25.285 19.9079 26.187 20.1358 27.0375C20.3637 27.8881 20.8659 28.6396 21.5645 29.1757C22.2631 29.7117 23.119 30.0023 23.9995 30.0023C24.8801 30.0023 25.736 29.7117 26.4346 29.1757C27.1331 28.6396 27.6353 27.8881 27.8632 27.0375C28.0911 26.187 28.032 25.285 27.695 24.4715C27.3581 23.658 26.7621 22.9784 25.9995 22.5381ZM23.9995 28C23.604 28 23.2173 27.8827 22.8884 27.663C22.5595 27.4432 22.3031 27.1308 22.1518 26.7654C22.0004 26.3999 21.9608 25.9978 22.038 25.6098C22.1151 25.2219 22.3056 24.8655 22.5853 24.5858C22.865 24.3061 23.2214 24.1156 23.6093 24.0385C23.9973 23.9613 24.3994 24.0009 24.7649 24.1523C25.1303 24.3036 25.4427 24.56 25.6625 24.8889C25.8822 25.2178 25.9995 25.6045 25.9995 26C25.9995 26.5305 25.7888 27.0392 25.4137 27.4142C25.0387 27.7893 24.53 28 23.9995 28Z" fill="white"/>
</svg>
