<svg width="19.5" height="32.5" viewBox="0 0 19.5 32.5" fill="none" xmlns="http://www.w3.org/2000/svg">
<path class="st0" d="M12.7,2.7H9.5C9,2.7,8.7,3.1,8.7,3.5C8.7,4,9,4.3,9.5,4.3h3.3c0.4,0,0.8-0.4,0.8-0.8
	C13.6,3.1,13.2,2.7,12.7,2.7z" fill="white"/>
<path class="st0" d="M16.3,0h-13C1.5,0,0,1.5,0,3.3v26c0,1.8,1.5,3.3,3.3,3.3h13c1.8,0,3.3-1.5,3.3-3.3v-26C19.5,1.5,18.1,0,16.3,0z
	 M17.9,29.3c0,0.9-0.7,1.6-1.6,1.6h-13c-0.9,0-1.6-0.7-1.6-1.6v-26c0-0.9,0.7-1.6,1.6-1.6h13c0.9,0,1.6,0.7,1.6,1.6V29.3z" fill="white"/>
<path class="st0" d="M9.8,29.8c0.9,0,1.6-0.7,1.6-1.6c0-0.9-0.7-1.6-1.6-1.6c-0.9,0-1.6,0.7-1.6,1.6C8.1,29.1,8.9,29.8,9.8,29.8z" fill="white"/>
<path class="st0" d="M6.8,4.3c0.4,0,0.8-0.4,0.8-0.8c0-0.4-0.4-0.8-0.8-0.8S6,3.1,6,3.5C6,4,6.3,4.3,6.8,4.3z" fill="white"/>
</svg>
