<svg width="24" height="29" viewBox="0 0 24 29" fill="none" xmlns="http://www.w3.org/2000/svg">
<path d="M17.8213 6.55371C15.3013 6.55371 14.2363 7.75621 12.4813 7.75621C10.6819 7.75621 9.30944 6.56246 7.12569 6.56246C4.98819 6.56246 2.70882 7.86746 1.26132 10.0906C-0.771182 13.2256 -0.426182 19.13 2.86569 24.16C4.04319 25.9606 5.61569 27.98 7.67819 28.0018H7.71569C9.50819 28.0018 10.0407 26.8281 12.5076 26.8143H12.5451C14.9751 26.8143 15.4626 27.995 17.2476 27.995H17.2851C19.3476 27.9731 21.0044 25.7356 22.1819 23.9418C23.0294 22.6518 23.3444 22.0043 23.9944 20.545C19.2326 18.7375 18.4676 11.9868 23.1769 9.39871C21.7394 7.59871 19.7194 6.55621 17.8151 6.55621L17.8213 6.55371Z" fill="white"/>
<path d="M17.2647 0C15.7647 0.101875 14.0147 1.05687 12.9897 2.30375C12.0597 3.43375 11.2947 5.11 11.5947 6.73563H11.7147C13.3122 6.73563 14.9472 5.77375 15.9022 4.54125C16.8222 3.36813 17.5197 1.70563 17.2647 0Z" fill="white"/>
</svg>
