<svg width="26" height="26" viewBox="0 0 26 26" fill="none" xmlns="http://www.w3.org/2000/svg">
<path d="M13 0C5.83177 0 0 5.83177 0 13C0 20.1682 5.83177 26 13 26C20.1682 26 26 20.1682 26 13C26 5.83177 20.1682 0 13 0ZM12.2383 4.36719C12.2383 3.94652 12.5793 3.60547 13 3.60547C13.4207 3.60547 13.7617 3.94652 13.7617 4.36719V10.4609C13.7617 10.8816 13.4207 11.2227 13 11.2227C12.5793 11.2227 12.2383 10.8816 12.2383 10.4609V4.36719ZM13 21.3789C8.37987 21.3789 4.62109 17.6201 4.62109 13C4.62109 9.67159 6.59425 6.65813 9.64798 5.32294C10.0334 5.15435 10.4825 5.33025 10.6511 5.71568C10.8196 6.10111 10.6438 6.55022 10.2583 6.71877C7.75927 7.81148 6.14453 10.277 6.14453 13C6.14453 16.7801 9.21989 19.8555 13 19.8555C16.7801 19.8555 19.8555 16.7801 19.8555 13C19.8555 10.277 18.2407 7.81148 15.7417 6.71882C15.3563 6.55027 15.1804 6.10116 15.349 5.71573C15.5175 5.33025 15.9666 5.1543 16.3521 5.32299C19.4058 6.65813 21.3789 9.67159 21.3789 13C21.3789 17.6201 17.6201 21.3789 13 21.3789Z" fill="white"/>
</svg>
