<svg width="18" height="32" viewBox="0 0 18 32" fill="none" xmlns="http://www.w3.org/2000/svg">
<path d="M14.4349 0H3.62435C1.78646 0 0.224854 1.49857 0.224854 3.33595V28.6679C0.224854 30.5052 1.75342 32 3.59131 32L14.4196 31.9883C16.2573 31.9883 17.7607 30.4933 17.7607 28.6557L17.7764 3.33418C17.7762 1.49019 16.2801 0 14.4349 0ZM7.46788 2.00005H10.6043C10.8798 2.00005 11.1043 2.22372 11.1043 2.5C11.1043 2.77628 10.8798 2.99994 10.6043 2.99994H7.46788C7.1916 2.99994 6.96793 2.77628 6.96793 2.5C6.96793 2.22372 7.1916 2.00005 7.46788 2.00005ZM5.58322 2.15916C5.76851 1.97412 6.10579 1.97158 6.29083 2.15916C6.3836 2.25167 6.4385 2.38155 6.4385 2.51423C6.4385 2.64436 6.3836 2.77399 6.29083 2.86676C6.19856 2.95953 6.06817 3.01418 5.93829 3.01418C5.80587 3.01418 5.67854 2.95953 5.58322 2.86676C5.49096 2.77424 5.43835 2.64436 5.43835 2.51423C5.43809 2.38155 5.49096 2.25167 5.58322 2.15916ZM8.93519 31.009C8.11016 31.009 7.43916 30.3375 7.43916 29.5127C7.43916 28.6877 8.11016 28.0164 8.93519 28.0164C9.76022 28.0164 10.4312 28.6877 10.4312 29.5127C10.4312 30.3375 9.75996 31.009 8.93519 31.009ZM16.2245 26.9995H1.9748V4.75014H16.2245V26.9995Z" fill="white"/>
</svg>
