<svg width="20" height="27" viewBox="0 0 20 27" fill="none" xmlns="http://www.w3.org/2000/svg">
<path d="M6.25 11.05V6.375C6.25 4.65 7.65 3.25 9.375 3.25C11.1 3.25 12.5 4.65 12.5 6.375V11.05C14.0125 10.0375 15 8.325 15 6.375C15 3.2625 12.4875 0.75 9.375 0.75C6.2625 0.75 3.75 3.2625 3.75 6.375C3.75 8.325 4.7375 10.0375 6.25 11.05ZM18.55 16.8375L12.875 14.0125C12.6625 13.925 12.4375 13.875 12.2 13.875H11.25V6.375C11.25 5.3375 10.4125 4.5 9.375 4.5C8.3375 4.5 7.5 5.3375 7.5 6.375V19.8L3.2125 18.9C3.1125 18.8875 3.025 18.8625 2.9125 18.8625C2.525 18.8625 2.175 19.025 1.925 19.275L0.9375 20.275L7.1125 26.45C7.45 26.7875 7.925 27 8.4375 27H16.925C17.8625 27 18.5875 26.3125 18.725 25.4L19.6625 18.8125C19.675 18.725 19.6875 18.6375 19.6875 18.5625C19.6875 17.7875 19.2125 17.1125 18.55 16.8375Z" fill="white"/>
</svg>
