<svg width="32" height="32" viewBox="0 0 32 32" fill="none" xmlns="http://www.w3.org/2000/svg">
<path d="M16 32C7.2 32 0 24.8 0 16C0 7.2 7.2 0 16 0C24.8 0 32 7.2 32 16C32 24.8 24.8 32 16 32ZM16 2.66667C8.66667 2.66667 2.66667 8.66667 2.66667 16C2.66667 23.3333 8.66667 29.3333 16 29.3333C23.3333 29.3333 29.3333 23.3333 29.3333 16C29.3333 8.66667 23.3333 2.66667 16 2.66667Z" fill="white"/>
<path d="M16.0001 21.3331C15.2001 21.3331 14.6667 20.7998 14.6667 19.9998V19.0664C14.6667 17.0664 15.7334 15.3331 17.3334 14.3998C18.4001 13.8664 18.9334 12.6664 18.6667 11.5998C18.5334 10.5331 17.6001 9.59976 16.5334 9.46643C15.7334 9.33309 14.9334 9.46643 14.2667 9.99976C13.7334 10.3998 13.3334 11.1998 13.3334 11.9998C13.3334 12.7998 12.8001 13.3331 12.0001 13.3331C11.2001 13.3331 10.6667 12.7998 10.6667 11.9998C10.6667 10.3998 11.3334 8.93309 12.5334 7.86643C13.7334 6.79976 15.3334 6.39976 16.9334 6.66643C19.0667 7.06643 20.8001 8.79976 21.2001 10.9331C21.6001 13.1998 20.5334 15.4664 18.5334 16.5331C17.7334 16.9331 17.3334 17.8664 17.3334 18.9331V19.9998C17.3334 20.7998 16.8001 21.3331 16.0001 21.3331Z" fill="white"/>
<path d="M16.0001 25.3332C16.7365 25.3332 17.3334 24.7362 17.3334 23.9998C17.3334 23.2635 16.7365 22.6665 16.0001 22.6665C15.2637 22.6665 14.6667 23.2635 14.6667 23.9998C14.6667 24.7362 15.2637 25.3332 16.0001 25.3332Z" fill="white"/>
<path d="M16 26C14.9333 26 14 25.0667 14 24C14 22.9333 14.9333 22 16 22C17.0667 22 18 22.9333 18 24C18 25.0667 17.0667 26 16 26ZM16 23.3333C15.6 23.3333 15.3333 23.6 15.3333 24C15.3333 24.4 15.6 24.6667 16 24.6667C16.4 24.6667 16.6667 24.4 16.6667 24C16.6667 23.6 16.4 23.3333 16 23.3333Z" fill="white"/>
</svg>
