<svg width="18" height="41" viewBox="0 0 18 41" fill="none" xmlns="http://www.w3.org/2000/svg">
<path d="M4 10.3061L2.7221 8.76762L0.677223 10.4661L2.87584 11.9603L4 10.3061ZM14 17.102L15.2779 18.6405L17.3228 16.942L15.1242 15.4479L14 17.102ZM4 25.4082L2.7221 23.8697L0.422752 25.7795L3.06539 27.1764L4 25.4082ZM14 30.6939L15.2779 32.2324L17.5772 30.3225L14.9346 28.9257L14 30.6939ZM12.7221 0.461501L2.7221 8.76762L5.2779 11.8446L15.2779 3.5385L12.7221 0.461501ZM2.87584 11.9603L12.8758 18.7562L15.1242 15.4479L5.12416 8.65196L2.87584 11.9603ZM12.7221 15.5635L2.7221 23.8697L5.2779 26.9467L15.2779 18.6405L12.7221 15.5635ZM3.06539 27.1764L13.0654 32.4621L14.9346 28.9257L4.93461 23.64L3.06539 27.1764ZM12.7221 29.1554L2.7221 37.4615L5.2779 40.5385L15.2779 32.2324L12.7221 29.1554Z" fill="white"/>
</svg>
