<svg width="26" height="26" viewBox="0 0 26 26" fill="none" xmlns="http://www.w3.org/2000/svg">
<g clip-path="url(#clip0)">
<path d="M15.1095 0.952157C14.8079 0.80829 14.4525 0.846423 14.1925 1.05616L5.7616 7.80056H1.73333C0.778267 7.80056 0 8.57882 0 9.53389V16.4672C0 17.424 0.778267 18.2006 1.73333 18.2006H5.7616L14.1908 24.945C14.3485 25.0698 14.5409 25.1339 14.7333 25.1339C14.8616 25.1339 14.9899 25.1044 15.1095 25.0472C15.4093 24.9034 15.6 24.6 15.6 24.2672V1.73389C15.6 1.40109 15.4093 1.09776 15.1095 0.952157Z" fill="white"/>
<path d="M19.9887 6.87147C19.6472 6.53521 19.0995 6.54041 18.7632 6.87841C18.427 7.21987 18.4304 7.76761 18.7702 8.10561C20.0806 9.39867 20.8016 11.1372 20.8016 13.0005C20.8016 14.8639 20.0806 16.6024 18.7702 17.8955C18.4304 18.23 18.427 18.7795 18.7632 19.1209C18.9331 19.2925 19.1567 19.3775 19.3786 19.3775C19.5987 19.3775 19.8188 19.2943 19.9887 19.1261C21.6319 17.5089 22.535 15.3319 22.535 13.0005C22.535 10.6692 21.6319 8.49214 19.9887 6.87147Z" fill="white"/>
<path d="M22.4335 4.42929C22.0921 4.09129 21.5443 4.09476 21.2063 4.43449C20.87 4.77423 20.8735 5.32369 21.2115 5.65996C23.1823 7.61343 24.2674 10.2204 24.2674 13.0006C24.2674 15.7809 23.1823 18.3861 21.2115 20.3396C20.8735 20.6776 20.87 21.227 21.2063 21.5668C21.3779 21.7366 21.5998 21.8216 21.8216 21.8216C22.0418 21.8216 22.2637 21.7384 22.4335 21.5702C24.7354 19.2909 26.0007 16.2472 26.0007 13.0006C26.0007 9.7541 24.7354 6.71036 22.4335 4.42929Z" fill="white"/>
</g>
<defs>
<clipPath id="clip0">
<rect width="26" height="26" fill="white"/>
</clipPath>
</defs>
</svg>
