<svg xmlns="http://www.w3.org/2000/svg" fill="none" viewBox="0 0 285 55"><path fill="#FF6A00" d="M170.432 27.432c1.12 0 1.936.22 2.448.66.512.44.768 1.06.768 1.86 0 .472-.108.916-.324 1.332-.208.408-.564.74-1.068.996-.496.256-1.172.384-2.028.384h-.984V36h-1.08v-8.568h2.268zm-.096.924h-1.092v3.384h.864c.816 0 1.424-.132 1.824-.396.4-.264.6-.712.6-1.344 0-.552-.176-.964-.528-1.236-.352-.272-.908-.408-1.668-.408zm7.434 1.092c.552 0 1.024.12 1.416.36.4.24.704.58.912 1.02.216.432.324.94.324 1.524v.636h-4.404c.016.728.2 1.284.552 1.668.36.376.86.564 1.5.564.408 0 .768-.036 1.08-.108.32-.08.648-.192.984-.336v.924a4.723 4.723 0 01-.972.312c-.32.072-.7.108-1.14.108-.608 0-1.148-.124-1.62-.372a2.642 2.642 0 01-1.092-1.104c-.256-.496-.384-1.1-.384-1.812 0-.704.116-1.308.348-1.812.24-.504.572-.892.996-1.164.432-.272.932-.408 1.5-.408zm-.012.864c-.504 0-.904.164-1.2.492-.288.32-.46.768-.516 1.344h3.276c-.008-.544-.136-.984-.384-1.32-.248-.344-.64-.516-1.176-.516zm11.201-.744V36h-.948v-4.104c0-.168.004-.344.012-.528l.048-.54h-.036l-2.1 5.172h-.888l-2.04-5.172h-.036c.024.36.036.728.036 1.104V36h-.948v-6.432h1.404l2.028 5.172 2.064-5.172h1.404zm7.645 3.204c0 1.064-.272 1.888-.816 2.472-.536.584-1.264.876-2.184.876a3.017 3.017 0 01-1.524-.384 2.778 2.778 0 01-1.044-1.14c-.256-.504-.384-1.112-.384-1.824 0-1.064.268-1.884.804-2.46.536-.576 1.264-.864 2.184-.864.584 0 1.096.132 1.536.396.448.256.796.632 1.044 1.128.256.488.384 1.088.384 1.8zm-4.86 0c0 .76.148 1.364.444 1.812.304.44.784.66 1.44.66.648 0 1.124-.22 1.428-.66.304-.448.456-1.052.456-1.812s-.152-1.356-.456-1.788c-.304-.432-.784-.648-1.44-.648-.656 0-1.132.216-1.428.648-.296.432-.444 1.028-.444 1.788zm7.59-3.204v2.676h3.492v-2.676h1.056V36h-1.056v-2.868h-3.492V36h-1.056v-6.432h1.056zm11.024.888h-2.1V36h-1.044v-5.544h-2.076v-.888h5.22v.888zm10.746-.888V36h-.948v-4.104c0-.168.004-.344.012-.528l.048-.54h-.036L218.08 36h-.888l-2.04-5.172h-.036c.024.36.036.728.036 1.104V36h-.948v-6.432h1.404l2.028 5.172 2.064-5.172h1.404zm7.645 3.204c0 1.064-.272 1.888-.816 2.472-.536.584-1.264.876-2.184.876a3.017 3.017 0 01-1.524-.384 2.778 2.778 0 01-1.044-1.14c-.256-.504-.384-1.112-.384-1.824 0-1.064.268-1.884.804-2.46.536-.576 1.264-.864 2.184-.864.584 0 1.096.132 1.536.396.448.256.796.632 1.044 1.128.256.488.384 1.088.384 1.8zm-4.86 0c0 .76.148 1.364.444 1.812.304.44.784.66 1.44.66.648 0 1.124-.22 1.428-.66.304-.448.456-1.052.456-1.812s-.152-1.356-.456-1.788c-.304-.432-.784-.648-1.44-.648-.656 0-1.132.216-1.428.648-.296.432-.444 1.028-.444 1.788zm6.197-.636c0-1.408.212-2.504.636-3.288.424-.792 1.108-1.288 2.052-1.488.52-.112 1.028-.212 1.524-.3s.96-.168 1.392-.24l.18.924c-.28.04-.596.092-.948.156-.352.056-.7.116-1.044.18-.344.056-.64.112-.888.168-.52.112-.932.384-1.236.816-.304.424-.476 1.088-.516 1.992h.072c.112-.152.264-.308.456-.468.2-.16.436-.296.708-.408.28-.112.596-.168.948-.168.832 0 1.46.268 1.884.804.424.536.636 1.232.636 2.088 0 .712-.124 1.308-.372 1.788s-.592.84-1.032 1.08c-.44.232-.952.348-1.536.348-.888 0-1.596-.34-2.124-1.02-.528-.68-.792-1.668-.792-2.964zm3 3.108c.52 0 .94-.168 1.26-.504.32-.336.48-.912.48-1.728 0-.656-.124-1.172-.372-1.548-.24-.384-.64-.576-1.2-.576-.352 0-.672.08-.96.24a2.796 2.796 0 00-.72.528c-.192.2-.328.368-.408.504 0 .392.028.772.084 1.14.056.368.152.7.288.996.144.288.34.52.588.696.256.168.576.252.96.252zm5.516-1.752a13.907 13.907 0 01-.048 1.008c-.008.192-.016.344-.024.456l3.444-5.388h1.296V36h-.984v-3.792-.504l.024-.612c.008-.208.016-.364.024-.468L238.914 36h-1.308v-6.432h.996v3.924zM250.213 36h-1.068v-5.556h-1.896c-.104 1.352-.248 2.444-.432 3.276-.184.824-.428 1.424-.732 1.8-.304.376-.688.564-1.152.564-.104 0-.208-.008-.312-.024a.66.66 0 01-.24-.06v-.792c.048.016.1.028.156.036.056.008.112.012.168.012.432 0 .776-.46 1.032-1.38.264-.92.464-2.356.6-4.308h3.876V36zm5.005-3.792c1.672 0 2.508.608 2.508 1.824 0 .6-.204 1.08-.612 1.44-.408.352-1.056.528-1.944.528h-2.916v-6.432h1.056v2.64h1.908zm1.452 1.884c0-.392-.14-.656-.42-.792-.272-.144-.656-.216-1.152-.216h-1.788v2.064h1.812c.448 0 .816-.08 1.104-.24.296-.16.444-.432.444-.816zm3.765-4.524v2.676h3.492v-2.676h1.056V36h-1.056v-2.868h-3.492V36h-1.056v-6.432h1.056zM267.02 36v-6.432h1.056v2.64h1.668c.832 0 1.448.152 1.848.456.4.304.6.76.6 1.368 0 .6-.196 1.08-.588 1.44-.392.352-1.028.528-1.908.528h-2.676zm6.24 0v-6.432h1.056V36h-1.056zm-3.66-.852c.456 0 .828-.076 1.116-.228.288-.16.432-.436.432-.828 0-.392-.132-.656-.396-.792-.264-.144-.644-.216-1.14-.216h-1.536v2.064h1.524zm8.284-2.436l-2.22-3.144h1.2l1.656 2.424 1.644-2.424h1.188l-2.22 3.144 2.34 3.288h-1.2l-1.752-2.568L276.744 36h-1.188l2.328-3.288zM167.012 43.568h1.128l1.392 3.66c.12.32.228.628.324.924.096.288.168.564.216.828h.048c.048-.2.124-.46.228-.78.104-.328.212-.656.324-.984l1.308-3.648h1.14l-2.772 7.32c-.224.608-.516 1.092-.876 1.452-.352.36-.84.54-1.464.54-.192 0-.36-.012-.504-.036a3.3 3.3 0 01-.372-.06v-.84c.088.016.192.032.312.048.128.016.26.024.396.024.368 0 .664-.104.888-.312.232-.208.412-.484.54-.828l.336-.852-2.592-6.456zm9.705 6.552a3.265 3.265 0 01-1.524-.348c-.44-.232-.788-.592-1.044-1.08-.248-.488-.372-1.112-.372-1.872 0-.792.132-1.436.396-1.932s.62-.86 1.068-1.092a3.365 3.365 0 011.548-.348 4.1 4.1 0 01.948.108c.304.064.552.144.744.24l-.324.876a6.244 6.244 0 00-.672-.204 2.976 2.976 0 00-.72-.096c-1.264 0-1.896.812-1.896 2.436 0 .776.152 1.372.456 1.788.312.408.772.612 1.38.612.352 0 .66-.036.924-.108a4.5 4.5 0 00.744-.264v.936a2.834 2.834 0 01-.72.252 3.917 3.917 0 01-.936.096zm7.626-5.664h-2.1V50h-1.044v-5.544h-2.076v-.888h5.22v.888zm4.327-1.008c.792 0 1.428.276 1.908.828.488.552.732 1.384.732 2.496 0 1.096-.244 1.928-.732 2.496-.48.568-1.12.852-1.92.852-.496 0-.908-.092-1.236-.276a2.57 2.57 0 01-.756-.66h-.072c.016.136.032.308.048.516.016.208.024.388.024.54v2.64h-1.056v-9.312h.864l.144.876h.048c.192-.28.444-.516.756-.708.312-.192.728-.288 1.248-.288zm-.192.888c-.656 0-1.12.184-1.392.552-.264.368-.404.928-.42 1.68v.204c0 .792.128 1.404.384 1.836.264.424.748.636 1.452.636.392 0 .712-.108.96-.324.256-.216.444-.508.564-.876.128-.376.192-.804.192-1.284 0-.736-.144-1.324-.432-1.764-.28-.44-.716-.66-1.308-.66zm10.107 2.436c0 1.064-.272 1.888-.816 2.472-.536.584-1.264.876-2.184.876a3.017 3.017 0 01-1.524-.384 2.778 2.778 0 01-1.044-1.14c-.256-.504-.384-1.112-.384-1.824 0-1.064.268-1.884.804-2.46.536-.576 1.264-.864 2.184-.864.584 0 1.096.132 1.536.396.448.256.796.632 1.044 1.128.256.488.384 1.088.384 1.8zm-4.86 0c0 .76.148 1.364.444 1.812.304.44.784.66 1.44.66.648 0 1.124-.22 1.428-.66.304-.448.456-1.052.456-1.812s-.152-1.356-.456-1.788c-.304-.432-.784-.648-1.44-.648-.656 0-1.132.216-1.428.648-.296.432-.444 1.028-.444 1.788zm11.741-5.868c-.056.6-.26 1.056-.612 1.368-.344.304-.896.456-1.656.456-.784 0-1.34-.152-1.668-.456-.32-.304-.5-.76-.54-1.368h.984c.04.432.152.724.336.876.192.144.496.216.912.216.368 0 .656-.076.864-.228.216-.16.344-.448.384-.864h.996zm-4.212 6.588a13.907 13.907 0 01-.048 1.008c-.008.192-.016.344-.024.456l3.444-5.388h1.296V50h-.984v-3.792-.504l.024-.612c.008-.208.016-.364.024-.468L201.566 50h-1.308v-6.432h.996v3.924zm9.295 2.628a3.265 3.265 0 01-1.524-.348c-.44-.232-.788-.592-1.044-1.08-.248-.488-.372-1.112-.372-1.872 0-.792.132-1.436.396-1.932s.62-.86 1.068-1.092a3.365 3.365 0 011.548-.348 4.1 4.1 0 01.948.108c.304.064.552.144.744.24l-.324.876a6.244 6.244 0 00-.672-.204 2.976 2.976 0 00-.72-.096c-1.264 0-1.896.812-1.896 2.436 0 .776.152 1.372.456 1.788.312.408.772.612 1.38.612.352 0 .66-.036.924-.108a4.5 4.5 0 00.744-.264v.936a2.834 2.834 0 01-.72.252 3.917 3.917 0 01-.936.096zm7.626-5.664h-2.1V50h-1.044v-5.544h-2.076v-.888h5.22v.888zm6.439.732c0 .4-.12.712-.36.936-.24.224-.548.376-.924.456v.048c.4.056.748.2 1.044.432.296.224.444.576.444 1.056 0 .544-.204.996-.612 1.356-.4.352-1.064.528-1.992.528h-2.772v-6.432h2.76c.456 0 .864.052 1.224.156.368.096.656.264.864.504.216.232.324.552.324.96zm-1.068.132c0-.304-.112-.524-.336-.66-.216-.144-.572-.216-1.068-.216h-1.644v1.764h1.452c1.064 0 1.596-.296 1.596-.888zm.18 2.796c0-.368-.14-.632-.42-.792-.28-.16-.692-.24-1.236-.24h-1.572v2.064h1.596c.528 0 .932-.076 1.212-.228.28-.16.42-.428.42-.804zm10.38-2.928c0 .4-.12.712-.36.936-.24.224-.548.376-.924.456v.048c.4.056.748.2 1.044.432.296.224.444.576.444 1.056 0 .544-.204.996-.612 1.356-.4.352-1.064.528-1.992.528h-2.772v-6.432h2.76c.456 0 .864.052 1.224.156.368.096.656.264.864.504.216.232.324.552.324.96zm-1.068.132c0-.304-.112-.524-.336-.66-.216-.144-.572-.216-1.068-.216h-1.644v1.764h1.452c1.064 0 1.596-.296 1.596-.888zm.18 2.796c0-.368-.14-.632-.42-.792-.28-.16-.692-.24-1.236-.24h-1.572v2.064h1.596c.528 0 .932-.076 1.212-.228.28-.16.42-.428.42-.804zM244.822 50h-1.296l-3.876-4.344V50h-1.08v-8.568h1.08v4.152l3.78-4.152h1.224l-3.72 4.164L244.822 50zm3.458-6.54c.784 0 1.364.172 1.74.516.376.344.564.892.564 1.644V50h-.768l-.204-.912h-.048c-.28.352-.576.612-.888.78-.304.168-.728.252-1.272.252-.584 0-1.068-.152-1.452-.456-.384-.312-.576-.796-.576-1.452 0-.64.252-1.132.756-1.476.504-.352 1.28-.544 2.328-.576l1.092-.036v-.384c0-.536-.116-.908-.348-1.116-.232-.208-.56-.312-.984-.312-.336 0-.656.052-.96.156a6.297 6.297 0 00-.852.336l-.324-.792c.28-.152.612-.28.996-.384a4.264 4.264 0 011.2-.168zm.312 3.432c-.8.032-1.356.16-1.668.384-.304.224-.456.54-.456.948 0 .36.108.624.324.792.224.168.508.252.852.252.544 0 .996-.148 1.356-.444.36-.304.54-.768.54-1.392v-.576l-.948.036zm5.671-3.444c.736 0 1.32.148 1.752.444.44.288.66.704.66 1.248 0 .392-.108.704-.324.936-.216.224-.512.388-.888.492v.048c.256.072.492.172.708.3.216.128.388.296.516.504.136.208.204.476.204.804 0 .536-.224.988-.672 1.356-.44.36-1.132.54-2.076.54-.464 0-.884-.04-1.26-.12a3.48 3.48 0 01-.936-.3v-.948c.272.128.592.244.96.348.376.104.784.156 1.224.156.48 0 .884-.08 1.212-.24.336-.168.504-.452.504-.852 0-.72-.612-1.08-1.836-1.08h-.864v-.864h.696c.552 0 .992-.072 1.32-.216.336-.152.504-.408.504-.768a.745.745 0 00-.384-.684c-.248-.152-.608-.228-1.08-.228a3.67 3.67 0 00-.936.108 5.707 5.707 0 00-.876.3l-.372-.84c.672-.296 1.42-.444 2.244-.444zm6.627.012c.784 0 1.364.172 1.74.516.376.344.564.892.564 1.644V50h-.768l-.204-.912h-.048c-.28.352-.576.612-.888.78-.304.168-.728.252-1.272.252-.584 0-1.068-.152-1.452-.456-.384-.312-.576-.796-.576-1.452 0-.64.252-1.132.756-1.476.504-.352 1.28-.544 2.328-.576l1.092-.036v-.384c0-.536-.116-.908-.348-1.116-.232-.208-.56-.312-.984-.312-.336 0-.656.052-.96.156a6.297 6.297 0 00-.852.336l-.324-.792c.28-.152.612-.28.996-.384a4.264 4.264 0 011.2-.168zm.312 3.432c-.8.032-1.356.16-1.668.384-.304.224-.456.54-.456.948 0 .36.108.624.324.792.224.168.508.252.852.252.544 0 .996-.148 1.356-.444.36-.304.54-.768.54-1.392v-.576l-.948.036zm5.034-3.324v2.676h3.492v-2.676h1.056V50h-1.056v-2.868h-3.492V50h-1.056v-6.432h1.056zm7.581 3.924a13.907 13.907 0 01-.048 1.008c-.008.192-.016.344-.024.456l3.444-5.388h1.296V50h-.984v-3.792-.504l.024-.612c.008-.208.016-.364.024-.468L274.129 50h-1.308v-6.432h.996v3.924z"/><path stroke="#676767" d="M154.5 25v30"/><path fill="#3FAB3C" d="M34.701 13.302l.422-2.702H45.87l-.457 2.737 1.616 6.529L48.75 9.757c.21-1.228-.632-2.246-1.826-2.246H35.298c-1.23 0-2.423 1.018-2.634 2.246l-1.827 10.6 3.864-7.055zm95.076 19.761l.597-3.545h11.661l-.562 3.545h-3.723l-2.915 17.55h-4.285l2.95-17.55h-3.723zm-9.096 17.55l1.51-9.056h-4.812l-1.545 9.056h-4.285l3.582-21.095h4.285l-1.44 8.495h4.812l1.44-8.495h4.285l-3.547 21.095h-4.285zm-18.756-14.426l-1.299 7.757c-.211 1.194-.141 2.106.211 2.668.351.561.983.842 1.861.842.738 0 1.335-.245 1.791-.772.457-.526.773-1.439.984-2.738l1.264-7.757c.211-1.193.141-2.106-.211-2.667-.351-.562-.948-.843-1.861-.843-.738 0-1.335.246-1.791.773-.387.526-.738 1.439-.949 2.737zm-4.214-.245c.386-2.457 1.159-4.212 2.283-5.23 1.124-1.018 2.669-1.545 4.636-1.545 2.458 0 4.214.702 5.268 2.071 1.054 1.404 1.405 3.37.984 5.932l-1.16 7.02c-.386 2.492-1.159 4.247-2.282 5.265-1.124 1.018-2.67 1.544-4.637 1.544-2.423 0-4.18-.702-5.268-2.07-1.054-1.404-1.37-3.37-.948-5.932l1.124-7.055zm-7.903-2.984h-2.037l-1.124 6.599h2.072c.773 0 1.405-.246 1.862-.702.456-.456.772-1.229.948-2.352l.14-.667c.176-1.018.106-1.755-.21-2.211-.316-.421-.878-.667-1.65-.667zm-9.202 17.655l3.583-21.095h6.181c1.791 0 3.196.562 4.25 1.72 1.053 1.159 1.44 2.598 1.159 4.388l-.21 1.158c-.352 2.246-1.055 3.86-2.108 4.809-1.054.947-2.564 1.439-4.531 1.439h-2.88l-1.264 7.581h-4.18zm-12.785 0l3.548-21.095h10.22l-.561 3.545H75.02l-.807 5.02h5.444l-.597 3.51h-5.444l-.913 5.475h5.97l-.597 3.545H67.821zm-7.13 0l3.091-18.322-6.216 18.322H53l-.281-18.497-3.091 18.497H45.87l3.547-21.095h6.814l-.035 15.48 4.917-15.48h7.025l-3.513 21.095h-3.933zM42.218 32.01H31.645l.984-6.107h-2.74l-1.159 6.88c-.21 1.228.597 2.246 1.826 2.246h4.496l-.351 1.895c-.035.246.105.422.351.422h2.283a.492.492 0 00.492-.422l.351-1.895h4.004c1.23 0 2.423-1.018 2.634-2.246l1.16-6.88h-2.74l-1.019 6.107z"/><path fill="#EE741D" d="M33.858 41.803l.492-3.123 3.055.035-1.686 9.547-2.072-2.106a233.434 233.434 0 01-6.99-7.441c-2.106-2.352-4.179-4.774-6.075-7.301-1.23-1.615-2.354-3.159-3.267-4.774h3.794c.456.738.948 1.404 1.475 2.142 1.229 1.684 2.564 3.299 3.898 4.914a265.058 265.058 0 007.376 8.108zM12.785 29.694H0l.492-2.983h12.784l-.491 2.983zm19.387-8.284l3.723-6.739 2.388 8.705 5.234-10.846 2.247 8.845H58.48c1.545-2.632 2.564-5.616 2.529-8.67 0-2.597-.808-5.23-2.635-7.124-1.685-1.755-3.968-2.528-6.357-2.598-3.968-.07-7.586 1.685-10.923 3.65-3.09-2.246-6.076-3.825-10.01-3.615-2.845.14-5.444 1.299-7.586 3.16-2.459 2.105-4.215 5.054-5.023 8.213-.421 1.72-.491 3.158-.386 4.738l-13.627-.035.456-2.948h10.15c.07-.702.211-1.404.387-2.142.948-3.825 3.09-7.406 6.111-9.968 2.74-2.352 6.041-3.79 9.589-4.001 3.723-.21 7.235.983 10.326 3.053C44.746 1.298 48.54-.07 52.332 0c3.161.07 6.112 1.123 8.324 3.404 2.354 2.387 3.407 5.722 3.407 9.021.035 4.563-1.65 8.248-4.074 12.004H43.833l-1.194-3.615-5.163 10.32-2.634-8.706-1.124 2.001H8.85l.492-2.983 22.83-.036z"/></svg>