<?xml version="1.0" encoding="utf-8"?>
<!-- Generator: Adobe Illustrator 22.1.0, SVG Export Plug-In . SVG Version: 6.00 Build 0)  -->
<svg version="1.1" id="Слой_1" xmlns="http://www.w3.org/2000/svg" xmlns:xlink="http://www.w3.org/1999/xlink" x="0px" y="0px"
	 viewBox="0 0 114 40" style="enable-background:new 0 0 114 40;" xml:space="preserve">
<style type="text/css">
	.st0{fill:#151517;}
	.st1{fill:none;stroke:#000000;}
</style>
<path class="st0" d="M74.9,17.1c0,0.6-0.1,1.1-0.3,1.6c-0.2,0.4-0.5,0.8-0.9,1s-0.9,0.4-1.5,0.4c-0.6,0-1.1-0.1-1.5-0.4
	c-0.4-0.2-0.7-0.6-0.9-1c-0.2-0.4-0.3-1-0.3-1.6c0-0.6,0.1-1.1,0.3-1.5c0.2-0.4,0.5-0.8,0.9-1c0.4-0.2,0.9-0.4,1.5-0.4
	c0.6,0,1.1,0.1,1.5,0.4c0.4,0.2,0.7,0.6,0.9,1C74.8,16,74.9,16.5,74.9,17.1z M70.7,17.1c0,0.6,0.1,1.1,0.3,1.4
	c0.2,0.3,0.6,0.5,1.1,0.5c0.5,0,0.9-0.2,1.1-0.5c0.2-0.3,0.3-0.8,0.3-1.4c0-0.6-0.1-1.1-0.3-1.4s-0.6-0.5-1.1-0.5s-0.9,0.2-1.1,0.5
	S70.7,16.5,70.7,17.1z M80,15.6V20h-1.2v-3.5h-1.6V20H76v-4.4H80z M85.1,20h-1.2v-3.5h-1.1c-0.1,0.9-0.2,1.5-0.3,2.1
	c-0.1,0.5-0.3,0.9-0.5,1.1c-0.2,0.2-0.5,0.4-0.8,0.4c-0.3,0-0.5,0-0.7-0.1v-1c0.1,0.1,0.3,0.1,0.4,0.1c0.1,0,0.2,0,0.3-0.1
	c0.1-0.1,0.2-0.3,0.2-0.5c0.1-0.3,0.1-0.6,0.2-1c0.1-0.5,0.1-1,0.2-1.7h3.3V20z M88.2,15.5c0.6,0,1,0.1,1.3,0.4
	c0.3,0.3,0.5,0.6,0.5,1.2V20h-0.8l-0.2-0.6h0c-0.2,0.2-0.4,0.4-0.6,0.5c-0.2,0.1-0.5,0.2-0.9,0.2c-0.4,0-0.7-0.1-1-0.3
	c-0.3-0.2-0.4-0.6-0.4-1c0-0.5,0.2-0.8,0.5-1c0.3-0.2,0.8-0.3,1.5-0.4l0.8,0v-0.2c0-0.2-0.1-0.4-0.2-0.5c-0.1-0.1-0.3-0.2-0.5-0.2
	s-0.4,0-0.6,0.1c-0.2,0.1-0.4,0.1-0.6,0.2l-0.4-0.8c0.2-0.1,0.5-0.2,0.8-0.3C87.6,15.6,87.8,15.5,88.2,15.5z M88.3,18
	c-0.4,0-0.7,0.1-0.8,0.2c-0.1,0.1-0.2,0.3-0.2,0.5c0,0.2,0.1,0.3,0.2,0.4c0.1,0.1,0.2,0.1,0.4,0.1c0.3,0,0.5-0.1,0.6-0.2
	c0.2-0.2,0.3-0.4,0.3-0.6V18L88.3,18z M94.8,16.5h-1.4V20h-1.2v-3.5h-1.4v-0.9h4.1V16.5z M97.4,15.5c0.6,0,1,0.1,1.3,0.4
	c0.3,0.3,0.5,0.6,0.5,1.2V20h-0.8l-0.2-0.6h0c-0.2,0.2-0.4,0.4-0.6,0.5c-0.2,0.1-0.5,0.2-0.9,0.2c-0.4,0-0.7-0.1-1-0.3
	c-0.3-0.2-0.4-0.6-0.4-1c0-0.5,0.2-0.8,0.5-1c0.3-0.2,0.8-0.3,1.5-0.4l0.8,0v-0.2c0-0.2-0.1-0.4-0.2-0.5c-0.1-0.1-0.3-0.2-0.5-0.2
	s-0.4,0-0.6,0.1c-0.2,0.1-0.4,0.1-0.6,0.2l-0.4-0.8c0.2-0.1,0.5-0.2,0.8-0.3C96.8,15.6,97.1,15.5,97.4,15.5z M97.6,18
	c-0.4,0-0.7,0.1-0.8,0.2c-0.1,0.1-0.2,0.3-0.2,0.5c0,0.2,0.1,0.3,0.2,0.4c0.1,0.1,0.2,0.1,0.4,0.1c0.3,0,0.5-0.1,0.6-0.2
	c0.2-0.2,0.3-0.4,0.3-0.6V18L97.6,18z M72.5,24.6h1.3l-1.7,2.1L74,29h-1.4l-1.8-2.2V29h-1.2v-4.4h1.2v2.1L72.5,24.6z M76.4,24.5
	c0.6,0,1,0.1,1.3,0.4c0.3,0.3,0.5,0.6,0.5,1.2V29h-0.8l-0.2-0.6h0c-0.2,0.2-0.4,0.4-0.6,0.5c-0.2,0.1-0.5,0.2-0.9,0.2
	c-0.4,0-0.7-0.1-1-0.3c-0.3-0.2-0.4-0.6-0.4-1c0-0.5,0.2-0.8,0.5-1c0.3-0.2,0.8-0.3,1.5-0.4l0.8,0v-0.2c0-0.2-0.1-0.4-0.2-0.5
	c-0.1-0.1-0.3-0.2-0.5-0.2c-0.2,0-0.4,0-0.6,0.1c-0.2,0.1-0.4,0.1-0.6,0.2l-0.4-0.8c0.2-0.1,0.5-0.2,0.8-0.3
	C75.8,24.6,76.1,24.5,76.4,24.5z M76.5,27c-0.4,0-0.7,0.1-0.8,0.2c-0.1,0.1-0.2,0.3-0.2,0.5c0,0.2,0.1,0.3,0.2,0.4
	c0.1,0.1,0.2,0.1,0.4,0.1c0.3,0,0.5-0.1,0.6-0.2c0.2-0.2,0.3-0.4,0.3-0.6V27L76.5,27z M81.8,24.6c0.5,0,0.9,0.2,1.2,0.6
	c0.3,0.4,0.5,0.9,0.5,1.7c0,0.7-0.2,1.3-0.5,1.7c-0.3,0.4-0.7,0.6-1.2,0.6c-0.3,0-0.6-0.1-0.8-0.2c-0.2-0.1-0.3-0.2-0.5-0.4h-0.1
	c0,0.2,0.1,0.4,0.1,0.6v1.8h-1.2v-6.3h1l0.2,0.6h0.1c0.1-0.2,0.3-0.3,0.5-0.5C81.3,24.6,81.5,24.6,81.8,24.6z M81.5,25.5
	c-0.3,0-0.5,0.1-0.7,0.3c-0.1,0.2-0.2,0.5-0.2,0.9v0.1c0,0.4,0.1,0.7,0.2,1c0.1,0.2,0.4,0.3,0.7,0.3c0.3,0,0.5-0.1,0.6-0.3
	c0.1-0.2,0.2-0.6,0.2-1C82.3,25.9,82,25.5,81.5,25.5z M88,25.5h-1.4V29h-1.2v-3.5h-1.4v-0.9H88V25.5z M92.7,26.8
	c0,0.7-0.2,1.3-0.6,1.7c-0.4,0.4-0.9,0.6-1.6,0.6c-0.4,0-0.8-0.1-1.1-0.3c-0.3-0.2-0.6-0.4-0.7-0.8c-0.2-0.3-0.3-0.8-0.3-1.2
	c0-0.7,0.2-1.3,0.6-1.7c0.4-0.4,0.9-0.6,1.6-0.6c0.4,0,0.8,0.1,1.1,0.3c0.3,0.2,0.6,0.4,0.7,0.8C92.6,25.9,92.7,26.3,92.7,26.8z
	 M89.7,26.8c0,0.4,0.1,0.8,0.2,1c0.1,0.2,0.4,0.3,0.7,0.3c0.3,0,0.5-0.1,0.7-0.3c0.1-0.2,0.2-0.6,0.2-1c0-0.4-0.1-0.8-0.2-1
	c-0.1-0.2-0.4-0.3-0.7-0.3c-0.3,0-0.5,0.1-0.7,0.3C89.8,26.1,89.7,26.4,89.7,26.8z M97.9,22.8c0,0.3-0.1,0.5-0.2,0.7
	c-0.1,0.2-0.3,0.4-0.6,0.5c-0.3,0.1-0.6,0.2-1.1,0.2c-0.5,0-0.8-0.1-1.1-0.2c-0.3-0.1-0.4-0.3-0.6-0.5c-0.1-0.2-0.2-0.5-0.2-0.7h1.1
	c0,0.3,0.1,0.5,0.2,0.6c0.1,0.1,0.3,0.1,0.6,0.1c0.2,0,0.4-0.1,0.6-0.2c0.1-0.1,0.2-0.3,0.3-0.6H97.9z M94.8,26.4c0,0.1,0,0.2,0,0.3
	c0,0.1,0,0.3,0,0.4c0,0.1,0,0.3,0,0.4c0,0.1,0,0.2,0,0.2l2-3.1h1.4V29H97v-1.7c0-0.1,0-0.3,0-0.5c0-0.2,0-0.3,0-0.5
	c0-0.2,0-0.3,0-0.4l-2,3.1h-1.4v-4.4h1.2V26.4z"/>
<path class="st1" d="M9,1h96c4.4,0,8,3.6,8,8v22c0,4.4-3.6,8-8,8H9c-4.4,0-8-3.6-8-8V9C1,4.6,4.6,1,9,1z"/>
<path class="st0" d="M34.3,11.9H7.7c-0.4,0-0.7,0.3-0.7,0.7v16.7c0,0.4,0.3,0.7,0.7,0.7h26.6c0.4,0,0.7-0.3,0.7-0.7V12.6
	C35,12.3,34.7,11.9,34.3,11.9z M9.2,17.4h3c0.4,0,0.7,0.1,0.8,0.6l0.6,3.1c-0.6-1.6-2.2-3-4.5-3.6L9.2,17.4z M12.8,24.5l-1.7-5.9
	c1.2,0.8,2.3,2.1,2.7,2.9l0.2,0.7l1.9-4.8h2l-3,7.1L12.8,24.5z M19.4,24.5h-1.9l1.2-7.1h1.9L19.4,24.5z M22.7,24.7
	c-0.9,0-1.7-0.2-2.1-0.4l0.3-1.6l0.2,0.1c0.6,0.3,1,0.4,1.8,0.4c0.6,0,1.1-0.2,1.2-0.7c0-0.3-0.2-0.5-1-0.9
	c-0.7-0.3-1.7-0.9-1.7-1.9c0-1.4,1.4-2.3,3.3-2.3c0.7,0,1.3,0.2,1.7,0.3l-0.3,1.5l-0.2-0.1c-0.4-0.1-0.8-0.3-1.4-0.3
	c-0.8,0-1.1,0.3-1.1,0.6c0,0.3,0.4,0.5,1.1,0.9c1.1,0.5,1.6,1.1,1.6,1.9C26.1,23.7,24.7,24.7,22.7,24.7z M31.1,24.5
	c0,0-0.2-0.8-0.2-1.1c-0.3,0-2.2,0-2.5,0c-0.1,0.2-0.4,1.1-0.4,1.1h-2l2.9-6.5c0.2-0.5,0.5-0.6,1-0.6h1.5l1.6,7.1L31.1,24.5z"/>
<path class="st0" d="M30.1,20l-0.1-0.6c-0.1,0.3-0.3,0.7-0.3,0.7c0,0-0.6,1.6-0.8,2h1.6C30.4,21.7,30.1,20,30.1,20z"/>
<path class="st0" d="M52.7,17.9c-0.8,0-1.5,0.3-2,0.7c0.5,0.7,0.7,1.5,0.7,2.4c0,0.9-0.3,1.7-0.7,2.4c0.5,0.5,1.2,0.7,2,0.7
	c1.7,0,3.1-1.4,3.1-3.1C55.8,19.3,54.4,17.9,52.7,17.9z"/>
<path class="st0" d="M60.9,12.1H39.1c-0.6,0-1.1,0.5-1.1,1.1v15.6c0,0.6,0.5,1.1,1.1,1.1h21.8c0.6,0,1.1-0.5,1.1-1.1V13.2
	C62,12.6,61.5,12.1,60.9,12.1z M52.7,25.2c-1,0-2-0.4-2.7-1c-0.7,0.6-1.7,1-2.7,1c-2.3,0-4.2-1.9-4.2-4.2s1.9-4.2,4.2-4.2
	c1,0,2,0.4,2.7,1c0.7-0.6,1.7-1,2.7-1c2.3,0,4.2,1.9,4.2,4.2S55,25.2,52.7,25.2z"/>
</svg>
