<?xml version="1.0" encoding="utf-8"?>
<!-- Generator: Adobe Illustrator 22.1.0, SVG Export Plug-In . SVG Version: 6.00 Build 0)  -->
<svg version="1.1" id="Слой_1" xmlns="http://www.w3.org/2000/svg" xmlns:xlink="http://www.w3.org/1999/xlink" x="0px" y="0px"
	 viewBox="0 0 114 40" enable-background="new 0 0 114 40" xml:space="preserve">
<path fill="#151517" d="M55.9,17.1c0,0.6-0.1,1.1-0.3,1.6c-0.2,0.4-0.5,0.8-0.9,1c-0.4,0.2-0.9,0.4-1.5,0.4c-0.6,0-1.1-0.1-1.5-0.4
	c-0.4-0.2-0.7-0.6-0.9-1c-0.2-0.4-0.3-1-0.3-1.6c0-0.6,0.1-1.1,0.3-1.5c0.2-0.4,0.5-0.8,0.9-1c0.4-0.2,0.9-0.4,1.5-0.4
	c0.6,0,1.1,0.1,1.5,0.4c0.4,0.2,0.7,0.6,0.9,1C55.8,16,55.9,16.5,55.9,17.1z M51.7,17.1c0,0.6,0.1,1.1,0.3,1.4
	c0.2,0.3,0.6,0.5,1.1,0.5c0.5,0,0.9-0.2,1.1-0.5c0.2-0.3,0.3-0.8,0.3-1.4c0-0.6-0.1-1.1-0.3-1.4c-0.2-0.3-0.6-0.5-1.1-0.5
	c-0.5,0-0.9,0.2-1.1,0.5C51.9,16.1,51.7,16.5,51.7,17.1z M61,15.6V20h-1.2v-3.5h-1.6V20H57v-4.4H61z M66.1,20h-1.2v-3.5h-1.1
	c-0.1,0.9-0.2,1.5-0.3,2.1c-0.1,0.5-0.3,0.9-0.5,1.1c-0.2,0.2-0.5,0.4-0.8,0.4c-0.3,0-0.5,0-0.7-0.1v-1c0.1,0.1,0.3,0.1,0.4,0.1
	c0.1,0,0.2,0,0.3-0.1c0.1-0.1,0.2-0.3,0.2-0.5c0.1-0.3,0.1-0.6,0.2-1c0.1-0.5,0.1-1,0.2-1.7h3.3V20z M69.2,15.5c0.6,0,1,0.1,1.3,0.4
	c0.3,0.3,0.5,0.6,0.5,1.2V20h-0.8l-0.2-0.6h0c-0.2,0.2-0.4,0.4-0.6,0.5c-0.2,0.1-0.5,0.2-0.9,0.2c-0.4,0-0.7-0.1-1-0.3
	c-0.3-0.2-0.4-0.6-0.4-1c0-0.5,0.2-0.8,0.5-1c0.3-0.2,0.8-0.3,1.5-0.4l0.8,0v-0.2c0-0.2-0.1-0.4-0.2-0.5c-0.1-0.1-0.3-0.2-0.5-0.2
	s-0.4,0-0.6,0.1c-0.2,0.1-0.4,0.1-0.6,0.2l-0.4-0.8c0.2-0.1,0.5-0.2,0.8-0.3C68.6,15.6,68.8,15.5,69.2,15.5z M69.3,18
	c-0.4,0-0.7,0.1-0.8,0.2c-0.1,0.1-0.2,0.3-0.2,0.5c0,0.2,0.1,0.3,0.2,0.4c0.1,0.1,0.2,0.1,0.4,0.1c0.3,0,0.5-0.1,0.6-0.2
	c0.2-0.2,0.3-0.4,0.3-0.6V18L69.3,18z M75.8,16.5h-1.4V20h-1.2v-3.5h-1.4v-0.9h4.1V16.5z M78.4,15.5c0.6,0,1,0.1,1.3,0.4
	c0.3,0.3,0.5,0.6,0.5,1.2V20h-0.8l-0.2-0.6h0c-0.2,0.2-0.4,0.4-0.6,0.5c-0.2,0.1-0.5,0.2-0.9,0.2c-0.4,0-0.7-0.1-1-0.3
	c-0.3-0.2-0.4-0.6-0.4-1c0-0.5,0.2-0.8,0.5-1c0.3-0.2,0.8-0.3,1.5-0.4l0.8,0v-0.2c0-0.2-0.1-0.4-0.2-0.5c-0.1-0.1-0.3-0.2-0.5-0.2
	s-0.4,0-0.6,0.1c-0.2,0.1-0.4,0.1-0.6,0.2l-0.4-0.8c0.2-0.1,0.5-0.2,0.8-0.3C77.8,15.6,78.1,15.5,78.4,15.5z M78.6,18
	c-0.4,0-0.7,0.1-0.8,0.2c-0.1,0.1-0.2,0.3-0.2,0.5c0,0.2,0.1,0.3,0.2,0.4c0.1,0.1,0.2,0.1,0.4,0.1c0.3,0,0.5-0.1,0.6-0.2
	c0.2-0.2,0.3-0.4,0.3-0.6V18L78.6,18z M51.8,24.6v1.7h1.7v-1.7h1.2V29h-1.2v-1.8h-1.7V29h-1.2v-4.4H51.8z M57.7,24.5
	c0.6,0,1,0.1,1.3,0.4c0.3,0.3,0.5,0.6,0.5,1.2V29h-0.8l-0.2-0.6h0c-0.2,0.2-0.4,0.4-0.6,0.5c-0.2,0.1-0.5,0.2-0.9,0.2
	c-0.4,0-0.7-0.1-1-0.3c-0.3-0.2-0.4-0.6-0.4-1c0-0.5,0.2-0.8,0.5-1c0.3-0.2,0.8-0.3,1.5-0.4l0.8,0v-0.2c0-0.2-0.1-0.4-0.2-0.5
	c-0.1-0.1-0.3-0.2-0.5-0.2c-0.2,0-0.4,0-0.6,0.1c-0.2,0.1-0.4,0.1-0.6,0.2L56,24.9c0.2-0.1,0.5-0.2,0.8-0.3
	C57.1,24.6,57.4,24.5,57.7,24.5z M57.9,27c-0.4,0-0.7,0.1-0.8,0.2c-0.1,0.1-0.2,0.3-0.2,0.5c0,0.2,0.1,0.3,0.2,0.4
	c0.1,0.1,0.2,0.1,0.4,0.1c0.3,0,0.5-0.1,0.6-0.2c0.2-0.2,0.3-0.4,0.3-0.6V27L57.9,27z M64.7,29h-1.2v-3.5h-1.1
	c-0.1,0.9-0.2,1.5-0.3,2.1c-0.1,0.5-0.3,0.9-0.5,1.1c-0.2,0.2-0.5,0.4-0.8,0.4c-0.3,0-0.5,0-0.7-0.1v-1c0.1,0.1,0.3,0.1,0.4,0.1
	c0.1,0,0.2,0,0.3-0.1c0.1-0.1,0.2-0.3,0.2-0.5c0.1-0.3,0.1-0.6,0.2-1c0.1-0.5,0.1-1,0.2-1.7h3.3V29z M67.1,26.4c0,0.1,0,0.2,0,0.3
	c0,0.1,0,0.3,0,0.4c0,0.1,0,0.3,0,0.4c0,0.1,0,0.2,0,0.2l2-3.1h1.4V29h-1.2v-1.7c0-0.1,0-0.3,0-0.5c0-0.2,0-0.3,0-0.5
	c0-0.2,0-0.3,0-0.4l-2,3.1h-1.4v-4.4h1.2V26.4z M72.7,26.2c0,0.4,0.2,0.6,0.5,0.6c0.2,0,0.4,0,0.6-0.1c0.2-0.1,0.4-0.1,0.6-0.2v-1.9
	h1.2V29h-1.2v-1.7c-0.2,0.1-0.4,0.2-0.6,0.3c-0.2,0.1-0.5,0.1-0.8,0.1c-0.5,0-0.8-0.1-1.1-0.4c-0.3-0.2-0.4-0.6-0.4-1.1v-1.6h1.2
	V26.2z M78.1,24.6v1.7h1.7v-1.7H81V29h-1.2v-1.8h-1.7V29h-1.2v-4.4H78.1z M82.2,29v-4.4h1.2v1.7H84c0.7,0,1.2,0.1,1.5,0.3
	c0.3,0.2,0.5,0.5,0.5,1c0,0.4-0.1,0.8-0.4,1C85.2,28.9,84.7,29,84,29H82.2z M86.6,29v-4.4h1.2V29H86.6z M84,28.2
	c0.2,0,0.4,0,0.6-0.1c0.1-0.1,0.2-0.2,0.2-0.4c0-0.3-0.3-0.5-0.8-0.5h-0.5v1H84z M94.5,24.6V29h-1.1v-2.1c0-0.2,0-0.4,0-0.6
	c0-0.2,0-0.4,0-0.6h0L92.2,29h-0.9l-1.2-3.3h0c0,0.2,0,0.4,0,0.6c0,0.2,0,0.4,0,0.7V29H89v-4.4h1.7l1.1,3l1.1-3H94.5z M96.9,26.4
	c0,0.1,0,0.2,0,0.3c0,0.1,0,0.3,0,0.4c0,0.1,0,0.3,0,0.4c0,0.1,0,0.2,0,0.2l2-3.1h1.4V29h-1.2v-1.7c0-0.1,0-0.3,0-0.5
	c0-0.2,0-0.3,0-0.5c0-0.2,0-0.3,0-0.4l-2,3.1h-1.4v-4.4h1.2V26.4z"/>
<path d="M30.1,16.8H36v-2.8c0-1.7-1.4-3.2-3.2-3.2H17.2c-1.7,0-3.2,1.4-3.2,3.2v11.8c0,1.7,1.4,3.2,3.2,3.2h15.7
	c1.7,0,3.2-1.4,3.2-3.2v-2.8h-5.9c-1.7,0-3.2-1.4-3.2-3.2C26.9,18.3,28.3,16.8,30.1,16.8z"/>
<path d="M30.1,18.1c-1,0-1.9,0.9-1.9,1.9s0.9,1.9,1.9,1.9H36v-3.8H30.1L30.1,18.1z M30.9,20.6h-0.8c-0.4,0-0.6-0.3-0.6-0.6
	c0-0.4,0.3-0.6,0.6-0.6h0.8c0.4,0,0.6,0.3,0.6,0.6C31.6,20.4,31.3,20.6,30.9,20.6z"/>
<path fill="none" stroke="#000000" d="M9,1h96c4.4,0,8,3.6,8,8v22c0,4.4-3.6,8-8,8H9c-4.4,0-8-3.6-8-8V9C1,4.6,4.6,1,9,1z"/>
</svg>
