<svg width="57" height="56" viewBox="0 0 57 56" fill="none" xmlns="http://www.w3.org/2000/svg">
<path d="M32.6483 53.3506C33.2766 53.3499 33.8789 53.0999 34.3232 52.6557C34.7675 52.2114 35.0174 51.609 35.0181 50.9807V50.4357H34.0244C33.8794 50.4357 33.7403 50.3781 33.6377 50.2756C33.5352 50.173 33.4776 50.0339 33.4776 49.8889C33.4776 49.7438 33.5352 49.6047 33.6377 49.5022C33.7403 49.3996 33.8794 49.342 34.0244 49.342H35.0181V26.6414C35.0187 26.1098 35.2302 25.6001 35.6061 25.2242C35.982 24.8483 36.4917 24.6369 37.0233 24.6362C37.1683 24.6362 37.3074 24.6939 37.41 24.7964C37.5125 24.899 37.5702 25.0381 37.5702 25.1831C37.5702 25.3282 37.5125 25.4673 37.41 25.5698C37.3074 25.6724 37.1683 25.73 37.0233 25.73C36.7816 25.7303 36.55 25.8264 36.3791 25.9972C36.2082 26.1681 36.1121 26.3998 36.1119 26.6414V28.3526C38.0021 28.9744 40.0507 28.913 41.9002 28.1789C43.7498 27.4448 45.2829 26.0848 46.2322 24.3359C46.3078 24.1989 46.3477 24.0451 46.3483 23.8887V16.6623C46.348 16.5078 46.3091 16.3558 46.2351 16.2202C45.5104 14.8925 44.4448 13.7821 43.1482 13.0033C41.8516 12.2244 40.3708 11.8053 38.8584 11.7891C38.831 11.7891 38.8037 11.7891 38.7762 11.7891C37.6785 11.7912 36.592 12.0098 35.5788 12.4323C34.5657 12.8547 33.6457 13.4728 32.8716 14.2511C31.2225 15.8861 30.2898 18.109 30.2786 20.4312V49.342H32.1033C32.2483 49.342 32.3874 49.3996 32.49 49.5022C32.5925 49.6047 32.6501 49.7438 32.6501 49.8889C32.6501 50.0339 32.5925 50.173 32.49 50.2756C32.3874 50.3781 32.2483 50.4357 32.1033 50.4357H30.2786V51.71C30.2786 52.2572 31.3031 53.3506 32.6483 53.3506ZM43.6192 18.9984C43.8716 18.9984 44.1184 19.0732 44.3282 19.2135C44.5381 19.3537 44.7016 19.553 44.7982 19.7862C44.8948 20.0193 44.92 20.2759 44.8708 20.5234C44.8216 20.771 44.7 20.9983 44.5216 21.1768C44.3431 21.3553 44.1157 21.4768 43.8682 21.526C43.6207 21.5753 43.3641 21.55 43.1309 21.4534C42.8977 21.3568 42.6984 21.1933 42.5582 20.9834C42.418 20.7736 42.3432 20.5269 42.3432 20.2745C42.3435 19.9362 42.4781 19.6118 42.7173 19.3726C42.9566 19.1333 43.2809 18.9988 43.6192 18.9984ZM33.8923 15.8168C34.7001 14.9152 35.7045 14.2117 36.8278 13.7605C36.9626 13.7069 37.1132 13.709 37.2464 13.7663C37.3797 13.8237 37.4847 13.9316 37.5383 14.0664C37.592 14.2011 37.5899 14.3517 37.5326 14.4849C37.4752 14.6182 37.3673 14.7232 37.2325 14.7769C36.2659 15.1653 35.4016 15.771 34.7067 16.5472C34.6098 16.6552 34.4741 16.7202 34.3292 16.728C34.1844 16.7359 34.0424 16.6859 33.9344 16.589C33.8265 16.4921 33.7614 16.3563 33.7536 16.2115C33.7457 16.0667 33.7958 15.9246 33.8926 15.8167L33.8923 15.8168ZM32.5153 19.7144C32.446 19.6955 32.3811 19.6631 32.3243 19.6192C32.2675 19.5752 32.22 19.5205 32.1843 19.4581C32.1487 19.3958 32.1257 19.327 32.1166 19.2558C32.1075 19.1845 32.1126 19.1122 32.1315 19.0429C32.2256 18.698 32.3429 18.3599 32.4827 18.0308C32.5094 17.9628 32.5496 17.9009 32.6006 17.8487C32.6517 17.7964 32.7128 17.755 32.7801 17.7267C32.8475 17.6985 32.9198 17.684 32.9929 17.6842C33.0659 17.6844 33.1382 17.6992 33.2055 17.7278C33.2727 17.7564 33.3335 17.7981 33.3843 17.8506C33.4352 17.9031 33.475 17.9652 33.5014 18.0333C33.5278 18.1014 33.5403 18.1741 33.5382 18.2471C33.536 18.3201 33.5193 18.392 33.4889 18.4584C33.3685 18.742 33.2674 19.0334 33.1863 19.3306C33.1674 19.3999 33.1351 19.4648 33.0911 19.5215C33.0471 19.5783 32.9924 19.6259 32.9301 19.6615C32.8677 19.6972 32.7989 19.7202 32.7277 19.7293C32.6565 19.7383 32.5841 19.7333 32.5148 19.7144H32.5153Z" fill="white"/>
<path d="M5.20809 24.336C6.15732 26.085 7.69043 27.4451 9.53999 28.1793C11.3895 28.9135 13.4382 28.975 15.3284 28.3532V26.6415C15.3282 26.3999 15.2321 26.1682 15.0612 25.9973C14.8903 25.8265 14.6587 25.7304 14.417 25.7301C14.272 25.7301 14.1329 25.6725 14.0303 25.5699C13.9278 25.4674 13.8701 25.3283 13.8701 25.1832C13.8701 25.0382 13.9278 24.8991 14.0303 24.7965C14.1329 24.694 14.272 24.6363 14.417 24.6363C14.9486 24.637 15.4583 24.8484 15.8342 25.2243C16.2101 25.6002 16.4216 26.1099 16.4222 26.6415V49.3421H17.4159C17.5609 49.3421 17.7 49.3997 17.8026 49.5023C17.9051 49.6048 17.9627 49.7439 17.9627 49.889C17.9627 50.034 17.9051 50.1731 17.8026 50.2757C17.7 50.3782 17.5609 50.4358 17.4159 50.4358H16.4222V50.9808C16.4229 51.6091 16.6728 52.2115 17.1171 52.6558C17.5614 53.1 18.1637 53.35 18.792 53.3507C20.1373 53.3507 21.1619 52.2569 21.1619 51.7101V50.4358H19.337C19.192 50.4358 19.0529 50.3782 18.9503 50.2757C18.8478 50.1731 18.7902 50.034 18.7902 49.889C18.7902 49.7439 18.8478 49.6048 18.9503 49.5023C19.0529 49.3997 19.192 49.3421 19.337 49.3421H21.1619V20.4313C21.1508 18.1087 20.2181 15.8854 18.5686 14.2502C17.7849 13.4618 16.8517 12.838 15.8236 12.4153C14.7955 11.9925 13.6934 11.7795 12.5818 11.7886C11.0694 11.8048 9.58857 12.2239 8.29197 13.0028C6.99537 13.7817 5.92984 14.8921 5.20513 16.2197C5.13114 16.3553 5.09226 16.5073 5.09204 16.6618V23.8882C5.09256 24.0449 5.13247 24.1988 5.20809 24.336ZM18.2404 17.7413C18.3065 17.7133 18.3775 17.6985 18.4493 17.6978C18.5212 17.6972 18.5924 17.7107 18.659 17.7376C18.7256 17.7645 18.7862 17.8042 18.8375 17.8545C18.8887 17.9048 18.9295 17.9648 18.9576 18.0309C19.0974 18.3599 19.2147 18.6981 19.3088 19.043C19.3277 19.1123 19.3328 19.1846 19.3237 19.2559C19.3146 19.3271 19.2916 19.3959 19.256 19.4582C19.2203 19.5206 19.1728 19.5753 19.116 19.6193C19.0592 19.6632 18.9943 19.6956 18.925 19.7145C18.8557 19.7334 18.7834 19.7384 18.7122 19.7293C18.6409 19.7203 18.5722 19.6973 18.5098 19.6616C18.4475 19.626 18.3927 19.5784 18.3488 19.5216C18.3048 19.4649 18.2725 19.4 18.2536 19.3307C18.1724 19.0335 18.0713 18.7421 17.9509 18.4585C17.9228 18.3924 17.9081 18.3214 17.9074 18.2496C17.9068 18.1778 17.9203 18.1066 17.9472 18.04C17.974 17.9734 18.0138 17.9127 18.0641 17.8615C18.1144 17.8102 18.1743 17.7694 18.2404 17.7413ZM13.9027 14.0663C13.9293 13.9996 13.9687 13.9387 14.0187 13.8872C14.0688 13.8357 14.1285 13.7945 14.1944 13.7661C14.2604 13.7377 14.3313 13.7225 14.4031 13.7215C14.475 13.7204 14.5463 13.7336 14.613 13.7601C15.7363 14.2112 16.7408 14.9148 17.5485 15.8163C17.5965 15.8698 17.6335 15.9322 17.6573 15.9999C17.6812 16.0677 17.6915 16.1394 17.6876 16.2111C17.6837 16.2829 17.6658 16.3531 17.6347 16.4179C17.6037 16.4827 17.5602 16.5407 17.5068 16.5886C17.4533 16.6366 17.3909 16.6736 17.3232 16.6974C17.2554 16.7213 17.1837 16.7316 17.112 16.7277C17.0402 16.7238 16.97 16.7059 16.9052 16.6748C16.8405 16.6438 16.7824 16.6003 16.7345 16.5469C16.0396 15.7708 15.1754 15.165 14.2088 14.7766C14.0741 14.723 13.9662 14.6181 13.9088 14.485C13.8514 14.3519 13.8492 14.2014 13.9027 14.0667V14.0663ZM7.82149 18.9992C8.07388 18.9991 8.32061 19.074 8.53047 19.2142C8.74034 19.3544 8.90391 19.5537 9.00051 19.7868C9.09712 20.02 9.1224 20.2766 9.07317 20.5241C9.02395 20.7717 8.90242 20.999 8.72397 21.1775C8.54551 21.356 8.31813 21.4775 8.07059 21.5268C7.82306 21.576 7.56647 21.5508 7.33329 21.4542C7.10012 21.3576 6.90081 21.1941 6.76059 20.9842C6.62037 20.7743 6.54553 20.5276 6.54553 20.2752C6.54573 19.9369 6.68014 19.6125 6.91927 19.3731C7.1584 19.1337 7.48272 18.999 7.82106 18.9985L7.82149 18.9992Z" fill="white"/>
</svg>
