<svg width="56" height="56" viewBox="0 0 56 56" xmlns="http://www.w3.org/2000/svg" fill="none"><path d="M32.148 53.351c.628-.001 1.231-.251 1.675-.695.444-.444.694-1.047.695-1.675v-.545h-.994c-.145 0-.284-.058-.387-.16-.103-.103-.16-.242-.16-.387 0-.145.058-.284.16-.387.102-.103.242-.16.387-.16h.994v-22.701c.001-.532.212-1.041.588-1.417.376-.376.886-.587 1.417-.588.145 0 .284.058.387.16.103.103.16.242.16.387 0 .145-.058.284-.16.387-.103.103-.242.16-.387.16-.242 0-.473.096-.644.267-.171.171-.267.403-.267.644v1.711c1.89.622 3.939.56 5.788-.174 1.85-.734 3.383-2.094 4.332-3.843.075-.137.115-.291.116-.447v-7.226c0-.154-.039-.306-.113-.442-.725-1.328-1.79-2.438-3.087-3.217-1.297-.779-2.777-1.198-4.29-1.214h-.082c-1.098.002-2.184.221-3.197.643-1.013.422-1.933 1.04-2.707 1.819-1.649 1.635-2.582 3.858-2.593 6.18v28.911h1.825c.145 0 .284.058.387.16.103.102.16.242.16.387 0 .145-.058.284-.16.387-.103.103-.242.16-.387.16h-1.825v1.274c0 .547 1.024 1.641 2.37 1.641zm10.971-34.352c.252 0 .499.075.709.215.21.14.373.34.47.573.097.233.122.49.073.737-.049.248-.171.475-.349.653-.178.178-.406.3-.653.349-.248.049-.504.024-.737-.073-.233-.097-.432-.26-.573-.47-.14-.21-.215-.456-.215-.709 0-.338.135-.663.374-.902s.564-.374.902-.374zm-9.727-3.182c.808-.902 1.812-1.605 2.935-2.056.135-.054.285-.052.419.006.133.057.238.165.292.3.054.135.052.285-.006.418-.057.133-.165.238-.3.292-.967.388-1.831.994-2.526 1.77-.097.108-.233.173-.377.181-.145.008-.287-.042-.395-.139-.108-.097-.173-.233-.181-.377-.008-.145.042-.287.139-.395zm-1.377 3.898l-.191-.095-.14-.161-.068-.202.015-.213c.094-.345.212-.683.351-1.012l.118-.182.179-.122.213-.043.213.044.179.123.117.183.037.214-.049.211c-.12.284-.221.575-.303.872l-.095.191-.161.14-.202.068-.213-.015zM4.708 24.336c.949 1.749 2.482 3.109 4.332 3.843 1.85.734 3.898.796 5.788.174v-1.712c0-.242-.096-.473-.267-.644-.171-.171-.403-.267-.644-.267-.145 0-.284-.058-.387-.16-.103-.102-.16-.242-.16-.387 0-.145.058-.284.16-.387.103-.103.242-.16.387-.16.532.001 1.041.212 1.417.588.376.376.587.886.588 1.417v22.701h.994c.145 0 .284.058.387.16.103.102.16.242.16.387 0 .145-.058.284-.16.387-.102.102-.242.16-.387.16h-.994v.545c.001.628.251 1.231.695 1.675.444.444 1.047.694 1.675.695 1.345 0 2.37-1.094 2.37-1.641v-1.274h-1.825c-.145 0-.284-.058-.387-.16-.103-.103-.16-.242-.16-.387 0-.145.058-.284.16-.387.103-.103.242-.16.387-.16h1.825v-28.911c-.011-2.323-.944-4.546-2.593-6.181-.784-.788-1.717-1.412-2.745-1.835-1.028-.423-2.13-.636-3.242-.627-1.512.016-2.993.435-4.29 1.214-1.297.779-2.362 1.889-3.087 3.217-.074.136-.113.288-.113.442v7.226c.001.157.04.311.116.448zm13.032-6.595l.209-.043.21.04.178.117.12.176c.14.329.257.667.351 1.012l.015.213-.068.202-.14.161-.191.095-.213.015-.202-.068-.161-.14-.095-.191c-.081-.297-.182-.589-.303-.872l-.044-.209.04-.21.117-.178.176-.12zm-4.338-3.675l.116-.179.176-.121.209-.045.21.039c1.123.451 2.128 1.155 2.936 2.056l.109.184.03.211-.053.207-.128.171-.184.109-.211.03-.207-.053-.171-.128c-.695-.776-1.559-1.382-2.526-1.77-.135-.054-.243-.159-.3-.292-.057-.133-.06-.284-.006-.418zm-6.081 4.933c.252 0 .499.075.709.215.21.14.373.339.47.573.097.233.122.49.073.737-.049.248-.171.475-.349.653-.178.179-.406.3-.653.349-.248.049-.504.024-.737-.073-.233-.097-.432-.26-.573-.47-.14-.21-.215-.457-.215-.709 0-.338.135-.663.374-.902s.563-.374.902-.375v.001zM35.902 4.444c2.798-1.03 5.89-.908 8.598.34 2.708 1.247 4.811 3.518 5.847 6.313l.111.184.173.127.209.051.212-.033.183-.113.126-.174.049-.209-.035-.212c-1.137-3.068-3.444-5.559-6.416-6.928-2.972-1.369-6.365-1.502-9.435-.372l-.182.112-.125.173-.05.208.033.211.112.182.173.125.208.05.211-.033zM43.11 7.802c-.944-.438-1.965-.684-3.004-.724-1.039-.04-2.076.126-3.051.489l-.182.112-.125.173-.05.208.033.211.112.182.173.125.207.05.211-.033c.841-.311 1.734-.452 2.63-.418.896.035 1.775.246 2.589.62.814.375 1.546.906 2.155 1.564.609.658 1.082 1.429 1.392 2.27.053.132.155.239.286.297.13.058.278.063.412.013.134-.049.243-.149.304-.278.061-.129.07-.276.024-.411-.358-.977-.906-1.873-1.612-2.636-.706-.764-1.557-1.379-2.503-1.812z" fill="#fff"/></svg>