<svg width="50" height="42" viewBox="0 0 50 42" fill="none" xmlns="http://www.w3.org/2000/svg">
<path class="st0" d="M50,8.7L50,8.7C50,8.8,50,8.8,50,8.7L50,8.7L50,8.7L50,41c0,0.2-0.1,0.4-0.2,0.5c-0.1,0.1-0.3,0.2-0.5,0.2H0.7
	c-0.2,0-0.4-0.1-0.5-0.2C0.1,41.4,0,41.2,0,41V8.8l0,0l0,0c0,0,0,0,0,0l0,0c0,0,0,0,0,0c0,0,0,0,0,0l0,0c0,0,0,0,0,0c0,0,0,0,0-0.1
	l0,0l0,0c0,0,0,0,0-0.1l0,0c0,0,0,0,0-0.1l0,0c0,0,0,0,0,0l0,0c0,0,0,0,0,0c0,0,0,0,0,0l0,0c0,0,0,0,0,0l0,0l0,0L7,0.5c0,0,0,0,0,0
	l0,0c0,0,0,0,0,0c0,0,0,0,0,0l0,0c0,0,0,0,0,0c0,0,0,0,0,0c0,0,0,0,0,0c0,0,0,0,0,0c0,0,0,0,0,0c0,0,0,0,0,0c0,0,0,0,0,0
	c0,0,0,0,0,0c0,0,0,0,0,0c0,0,0,0,0,0c0,0,0,0,0,0c0,0,0,0,0,0c0,0,0,0,0,0c0,0,0,0,0,0l0,0c0,0,0,0,0,0h34.9c0,0,0,0,0,0l0,0
	c0,0,0,0,0,0c0,0,0,0,0,0c0,0,0,0,0,0c0,0,0,0,0,0c0,0,0,0,0,0c0,0,0,0,0,0c0,0,0,0,0,0c0,0,0,0,0,0c0,0,0,0,0,0c0,0,0,0,0,0
	c0,0,0,0,0,0c0,0,0,0,0,0c0,0,0,0,0,0c0,0,0,0,0,0c0,0,0,0,0,0c0,0,0,0,0,0l0,0c0,0,0,0,0,0l6.8,7.8l0,0l0,0c0,0,0,0,0,0
	c0,0,0,0,0,0l0,0c0,0,0,0,0,0c0,0,0,0,0,0c0,0,0,0,0,0l0,0c0,0,0,0,0,0.1l0,0c0,0,0,0,0,0.1l0,0l0,0C50,8.6,50,8.6,50,8.7
	C50,8.6,50,8.7,50,8.7L50,8.7C50,8.7,50,8.7,50,8.7C50,8.7,50,8.7,50,8.7z" fill="#fff"/>
<path class="st1" d="M23.3,30c-1.8,0-3.3-3.7-3.3-5.5c0-3,2.3-3.7,3.2-3.7c0.4,0,0.8,0.2,1.2,0.3c0.3,0.1,0.5,0.2,0.7,0.2
	c0.1,0,0.3-0.1,0.5-0.2c0.4-0.2,0.9-0.4,1.5-0.4c0,0,0,0,0,0c0.4,0,1.7,0.1,2.5,1.3l0.2,0.3l-0.3,0.2c-0.4,0.3-1.1,0.8-1.1,1.8
	c0,1.2,0.8,1.7,1.2,1.9c0.2,0.1,0.3,0.2,0.3,0.4c0,0.1-1.2,3.3-2.9,3.3c-0.4,0-0.7-0.1-1-0.2c-0.3-0.1-0.5-0.2-0.9-0.2
	c-0.2,0-0.4,0.1-0.7,0.2C24.2,29.9,23.8,30,23.3,30L23.3,30z" fill="#575757"/>
<path class="st1" d="M27.2,18c0,1.6-1.1,2.7-2.2,2.6C24.8,19.4,26.1,18,27.2,18z" fill="#575757"/>
</svg>
