<svg width="32" height="62" viewBox="0 0 32 62" fill="none" xmlns="http://www.w3.org/2000/svg">
<path fill-rule="evenodd" clip-rule="evenodd" d="M31.7815 22.175C31.7815 21.0705 30.8936 20.175 29.789 20.175C24.9148 20.175 12.0789 20.175 2.35781 20.175C1.25324 20.175 0.361328 21.0704 0.361328 22.175C0.361328 25.9364 0.361328 30.341 0.361328 30.341H0.476639C0.408994 30.7946 0.361328 31.2544 0.361328 31.7276L0.361328 51.9675C0.361328 57.0711 4.4995 61.2083 9.6017 61.2083H10.5574L20.4149 61.2071H22.5407C27.6451 61.2071 31.7815 57.0699 31.7815 51.9661L31.7815 31.7264C31.7815 31.2535 31.7348 30.7934 31.667 30.3401H31.7815V22.175ZM5.35408 4.12766C5.35408 2.13829 6.96785 0.523125 8.95802 0.523125L8.95812 18.6046H5.35408L5.35408 4.12766ZM26.4167 18.6046H22.8126L22.8124 0.523125C24.8029 0.523125 26.4167 2.13829 26.4167 4.12766V18.6046Z" fill="white"/>
</svg>
