<svg width="60" height="60" viewBox="0 0 60 60" xmlns="http://www.w3.org/2000/svg" fill="none"><g clip-path="url(#a)" fill="#fff"><path d="M38.571 10.476h-20.951c-3.676 0-6.667 2.994-6.667 6.674v25.699c0 3.68 2.991 6.674 6.667 6.674h20.951c3.676 0 6.667-2.994 6.667-6.674v-25.699c0-3.68-2.991-6.674-6.667-6.674zm4.762 32.374c0 2.63-2.136 4.769-4.762 4.769h-20.952c-2.626 0-4.762-2.139-4.762-4.769v-25.699c0-2.63 2.136-4.769 4.762-4.769h20.952c2.626 0 4.762 2.139 4.762 4.769v25.699zM40.461 11.258l-1.394-7.668c-.366-2.014-2.255-3.59-4.299-3.59h-13.345c-2.044 0-3.933 1.576-4.299 3.59l-1.394 7.668c-.051.278.025.563.206.78.181.217.449.342.731.342h22.857c.282 0 .55-.126.731-.342.181-.217.257-.502.206-.78zm-22.653-.782l1.19-6.546c.2-1.098 1.31-2.026 2.425-2.026h13.345c1.115 0 2.225.928 2.425 2.026l1.19 6.546h-20.575zM17.807 10.476l1.19-6.546c.2-1.098 1.31-2.026 2.425-2.026h13.345c1.115 0 2.225.928 2.425 2.026l1.19 6.546h-20.575zM40.255 47.962c-.181-.217-.448-.342-.731-.342h-22.857c-.282 0-.55.126-.731.342-.181.217-.257.502-.206.78l1.394 7.668c.367 2.013 2.255 3.59 4.299 3.59h13.345c2.045 0 3.933-1.576 4.299-3.59l1.394-7.668c.051-.278-.025-.563-.206-.78zm-3.062 8.108c-.2 1.098-1.31 2.026-2.425 2.026h-13.345c-1.115 0-2.225-.927-2.425-2.026l-1.19-6.546h20.575l-1.19 6.546zM37.193 56.069c-.2 1.098-1.31 2.026-2.425 2.026h-13.345c-1.115 0-2.225-.927-2.425-2.026l-1.19-6.546h20.575l-1.19 6.546zM46.332 20h-2.046c-.526 0-.952.426-.952.952v8.571c0 .526.427.952.952.952h2.046c1.497 0 2.716-1.218 2.716-2.716v-5.045c0-1.497-1.218-2.716-2.716-2.716zm.811 7.76c0 .447-.364.811-.811.811h-1.094v-6.667h1.094c.447 0 .811.364.811.811v5.045zM18.293 14.565c-.372-.372-.975-.372-1.347 0l-2.381 2.381c-.372.372-.372.975 0 1.347.186.186.43.279.673.279.243 0 .487-.093.673-.279l2.381-2.381c.372-.372.372-.975 0-1.347zM22.102 14.565c-.372-.372-.975-.372-1.347 0l-5.238 5.238c-.372.372-.372.975 0 1.347.186.186.43.279.673.279.244 0 .487-.093.673-.279l5.238-5.238c.372-.372.372-.975 0-1.347z"/></g><defs><clipPath id="a"><path fill="#fff" d="M0 0h60v60h-60z"/></clipPath></defs></svg>