<svg width="32" height="56" viewBox="0 0 32 56" xmlns="http://www.w3.org/2000/svg" fill="none"><path d="M25.511 0h-18.918c-3.216 0-5.949 2.623-5.949 5.838v44.331c0 3.215 2.675 5.831 5.891 5.831l18.95-.02c3.216 0 5.847-2.616 5.847-5.832l.028-44.313c0-3.227-2.619-5.835-5.848-5.835zm-12.192 3.5h5.489c.482 0 .875.391.875.875 0 .483-.393.875-.875.875h-5.489c-.484 0-.875-.391-.875-.875 0-.483.391-.875.875-.875zm-3.298.278c.324-.324.914-.328 1.238 0 .162.162.258.389.258.621 0 .228-.096.455-.258.617-.161.162-.39.258-.617.258-.232 0-.455-.096-.621-.258-.161-.162-.254-.389-.254-.617 0-.232.092-.459.254-.621zm5.866 50.487c-1.444 0-2.618-1.175-2.618-2.619 0-1.444 1.174-2.618 2.618-2.618s2.618 1.175 2.618 2.618c0 1.443-1.175 2.619-2.618 2.619zm12.756-7.017h-24.937v-38.936h24.937v38.936z" fill="#fff"/></svg>